<?xml version="1.0" encoding="utf-8"?>
<!-- Generator: Adobe Illustrator 26.4.1, SVG Export Plug-In . SVG Version: 6.00 Build 0)  -->
<svg version="1.1" id="Layer_1" xmlns="http://www.w3.org/2000/svg" xmlns:xlink="http://www.w3.org/1999/xlink" x="0px" y="0px"
	 viewBox="0 0 1714.8 1172.7" style="enable-background:new 0 0 1714.8 1172.7;" xml:space="preserve">
<style type="text/css">
	.st0{opacity:0.14;fill:#030C42;}
	.st1{fill:#074399;}
	.st2{fill:#0E4AA0;}
	.st3{fill:#134EB2;}
	.st4{fill:#0F7CD6;}
	.st5{fill:#195DBF;}
	.st6{fill:#063F84;}
	.st7{fill:#CEDDFB;}
	.st8{fill:#005DB8;}
	.st9{fill:#FFEC00;}
	.st10{fill:#F7D63F;}
	.st11{clip-path:url(#SVGID_00000090293303979008263750000002148455719042308740_);}
	.st12{fill:none;}
	.st13{fill:#FFFFFC;}
	.st14{fill:#FFFFFF;}
	.st15{fill:#005EB8;stroke:#000000;stroke-width:0.9622;stroke-miterlimit:10;}
	.st16{fill:#E7E7E7;}
	.st17{fill:#E2F0F4;}
	.st18{fill:#0E4AA0;stroke:#0E4AA0;stroke-width:0.9622;stroke-miterlimit:10;}
	.st19{fill:#F0F9FB;}
	.st20{fill:#C14B27;}
	.st21{fill:#C8CDE4;}
	.st22{fill:#39364A;}
	.st23{fill:#F78877;}
	.st24{fill:#C25446;}
	.st25{fill:#FFB259;}
	.st26{fill:#18ED6E;}
	.st27{fill:#E0743B;}
	.st28{fill:#0E0D1C;}
	.st29{fill:#703D46;}
	.st30{fill:#4C1F29;}
	.st31{fill:#BBB8CC;}
	.st32{fill:#F3F4FA;}
	.st33{fill:#0D1406;}
	.st34{fill:#BFC5DE;}
	.st35{fill:#2A2247;}
	.st36{fill:#DD7F7A;}
	.st37{fill:none;stroke:#E0743B;stroke-width:1.0681;stroke-miterlimit:10;}
	.st38{fill:#1C1C1C;}
	.st39{fill:#FF744D;}
	.st40{fill:#FF002B;}
	.st41{fill:#54A5C6;}
	.st42{fill:#077399;}
	.st43{fill:#CCEBF5;}
	.st44{fill:#2A94B1;}
	.st45{fill:#2C353E;}
	.st46{fill:#00508C;}
	.st47{fill:#D1B12A;}
	.st48{fill:#ACDFEE;}
	.st49{fill:#491908;}
	.st50{fill:#D34929;}
	.st51{fill:none;stroke:#077399;stroke-width:1.9323;stroke-miterlimit:10;}
	.st52{fill:#E0E0E0;}
	.st53{fill:#28324E;}
	.st54{fill:#699DEE;}
	.st55{fill:#3F4344;}
	.st56{fill:#E6EFEF;}
	.st57{opacity:0.37;fill:#FFFFFF;}
	.st58{opacity:0.42;fill:#FFFFFF;}
	.st59{opacity:0.43;fill:#B0C1C6;}
	.st60{opacity:0.25;fill:#FFFFFF;}
	.st61{fill:#34D0EA;}
	.st62{fill:#E9F2F4;}
	.st63{opacity:0.35;fill:#FFFFFF;}
	.st64{opacity:0.53;fill:#B0C1C6;}
	.st65{fill:#2D3233;}
	.st66{fill:#515556;}
	.st67{fill:#EBF1F2;}
	.st68{opacity:0.1;fill:#3F4344;}
	.st69{opacity:0.35;fill:#B0C1C6;}
	.st70{fill:#4A75CB;}
</style>
<g id="Layer_2_00000089535583706132139920000008877217628369802885_">
</g>
<g>
	<ellipse class="st0" cx="837" cy="796.6" rx="616.9" ry="8.6"/>
	<rect x="913.8" y="196.1" class="st1" width="487.2" height="600"/>
	<rect x="962.4" y="225.4" class="st2" width="438.6" height="65.4"/>
	<rect x="601.3" y="333.1" class="st1" width="550.2" height="465.1"/>
	<rect x="587.7" y="316.2" class="st3" width="580" height="16.9"/>
	<rect x="904" y="187.6" class="st3" width="506" height="16.9"/>
	<rect x="269.2" y="388.2" class="st1" width="332.1" height="184.2"/>
	<rect x="269.2" y="610.7" class="st1" width="332.1" height="184.2"/>
	<rect x="315.2" y="572.3" class="st1" width="286.1" height="38.3"/>
	<g>
		<rect x="932.6" y="354" class="st3" width="235.3" height="57.1"/>
		<g>
			<g>
				<g>
					<path class="st4" d="M964.6,403.1c-5.5,0-10.7-2.1-14.6-6c-3.9-3.9-6-9.1-6-14.6c0-5.5,2.1-10.7,6-14.6c3.9-3.9,9.1-6,14.6-6
						c5.5,0,10.7,2.1,14.6,6c3.9,3.9,6,9.1,6,14.6c0,5.5-2.1,10.7-6,14.6C975.3,401,970.1,403.1,964.6,403.1z M964.6,363.8
						c-5,0-9.7,1.9-13.2,5.5c-3.5,3.5-5.5,8.2-5.5,13.2c0,5,1.9,9.7,5.5,13.2c3.5,3.5,8.2,5.5,13.2,5.5c5,0,9.7-1.9,13.2-5.5
						c3.5-3.5,5.5-8.2,5.5-13.2c0-5-1.9-9.7-5.5-13.2C974.3,365.8,969.6,363.8,964.6,363.8z"/>
				</g>
				<polygon class="st4" points="977.9,379.2 967.9,379.2 967.9,369.2 961.2,369.2 961.2,379.2 951.3,379.2 951.3,385.9 
					961.2,385.9 961.2,395.8 967.9,395.8 967.9,385.9 977.9,385.9 				"/>
			</g>
		</g>
		<g>
			<path class="st4" d="M1001.5,372.7h4.4v7.9h8.1v-7.9h4.4v19.9h-4.4v-8h-8.1v8h-4.4V372.7z"/>
			<path class="st4" d="M1022.2,382.6c0-5.7,4.5-10.3,10.6-10.3s10.5,4.6,10.5,10.3c0,5.7-4.5,10.3-10.6,10.3
				C1026.6,392.9,1022.2,388.3,1022.2,382.6z M1038.8,382.6c0-3.4-2.5-6.2-6-6.2c-3.5,0-6,2.8-6,6.2c0,3.4,2.5,6.2,6,6.2
				S1038.8,386.1,1038.8,382.6z"/>
			<path class="st4" d="M1045.7,389.6l2.6-3.1c1.8,1.5,3.7,2.4,5.9,2.4c1.8,0,2.9-0.7,2.9-1.9c0-1.1-0.7-1.7-4-2.5
				c-4-1-6.6-2.1-6.6-6.1c0-3.6,2.9-6,7-6c2.9,0,5.4,0.9,7.4,2.5l-2.3,3.3c-1.8-1.2-3.5-2-5.2-2c-1.7,0-2.6,0.8-2.6,1.8
				c0,1.3,0.9,1.7,4.3,2.6c4,1.1,6.3,2.5,6.3,6c0,3.9-3,6.2-7.3,6.2C1051.1,392.8,1048.1,391.8,1045.7,389.6z"/>
			<path class="st4" d="M1065.3,372.7h8.1c4.7,0,7.6,2.8,7.6,6.9c0,4.6-3.6,7-8,7h-3.3v6h-4.4V372.7z M1073.1,382.7
				c2.2,0,3.5-1.3,3.5-3.1c0-2-1.4-3-3.5-3h-3.4v6.1H1073.1z"/>
			<path class="st4" d="M1084.4,372.7h4.4v19.9h-4.4V372.7z"/>
			<path class="st4" d="M1098.4,376.7h-6v-4h16.5v4h-6v15.8h-4.4V376.7z"/>
			<path class="st4" d="M1116.4,372.5h4l8.5,20h-4.6l-1.8-4.5h-8.4l-1.8,4.5h-4.5L1116.4,372.5z M1121,384.2l-2.6-6.4l-2.6,6.4H1121
				z"/>
			<path class="st4" d="M1132,372.7h4.4v15.9h9.9v4H1132V372.7z"/>
		</g>
	</g>
	<rect x="1179.1" y="575.7" class="st5" width="221.9" height="146.4"/>
	<rect x="1179.1" y="360.1" class="st3" width="221.9" height="146.4"/>
	<rect x="967" y="228.9" class="st3" width="434" height="57.7"/>
	<rect x="248.4" y="387.1" class="st3" width="352.9" height="18.2"/>
	<g>
		<rect x="686.9" y="591.4" class="st3" width="386.6" height="202"/>
		<rect x="699.9" y="605.5" class="st1" width="362.4" height="188.5"/>
		<rect x="713.6" y="617.5" class="st3" width="335.7" height="43.3"/>
		<rect x="713.6" y="672.5" class="st3" width="98.2" height="120.7"/>
		<rect x="821.1" y="672.5" class="st3" width="120.7" height="120.7"/>
		<rect x="950.1" y="672.5" class="st3" width="99.2" height="120.7"/>
		<polygon class="st5" points="860.7,672.5 941.8,672.5 941.8,717.2 927.4,793.2 837.7,793.2 		"/>
		<g>
			<g>
				<rect x="837" y="695.5" class="st1" width="90.3" height="97.9"/>
				<rect x="841.3" y="699.9" class="st3" width="81.7" height="93.4"/>
				<rect x="880.6" y="699.9" class="st6" width="3" height="93.4"/>
			</g>
			<g>
				<g>
					<path class="st6" d="M873.3,746.7c0-1.1,0.9-1.9,1.9-1.9c1.1,0,1.9,0.9,1.9,1.9c0,1.1-0.9,1.9-1.9,1.9
						C874.2,748.6,873.3,747.7,873.3,746.7z"/>
					<path class="st6" d="M887.1,746.7c0-1.1,0.9-1.9,1.9-1.9s1.9,0.9,1.9,1.9c0,1.1-0.9,1.9-1.9,1.9S887.1,747.7,887.1,746.7z"/>
				</g>
			</g>
		</g>
		<polygon class="st5" points="744.9,672.5 794.6,672.5 778.7,793.2 729,793.2 		"/>
		<polygon class="st5" points="801.8,617.5 796.1,660.8 746.4,660.8 752.1,617.5 		"/>
		<polygon class="st5" points="973.6,672.5 1023.3,672.5 1007.5,793.2 957.7,793.2 		"/>
		<polygon class="st5" points="1030.6,617.5 1024.9,660.8 975.2,660.8 980.9,617.5 		"/>
		<polygon class="st5" points="960.8,617.5 952.6,660.8 862.9,660.8 871.2,617.5 		"/>
	</g>
	<polygon class="st7" points="950.2,681.4 950.4,681.4 950.2,682.4 	"/>
	<polygon class="st5" points="1282.8,506.6 1209.4,506.6 1241.5,360.1 1315,360.1 	"/>
	<polygon class="st3" points="1347.9,722.2 1274.5,722.2 1306.6,575.7 1380,575.7 	"/>
	<polygon class="st3" points="1243.5,575.7 1211.4,722.2 1179.1,722.2 1179.1,575.7 	"/>
	<polygon class="st5" points="1401,360.1 1401,506.6 1320.3,506.6 1356.1,360.1 	"/>
	<rect x="1073.3" y="228.9" class="st2" width="6.1" height="57.7"/>
	<rect x="1196.8" y="228.9" class="st2" width="6.1" height="57.7"/>
	<rect x="1317.2" y="228.9" class="st2" width="6.1" height="57.7"/>
	<g>
		<g>
			<rect x="308.1" y="454.3" class="st8" width="36.8" height="58.1"/>
			<g>
				<g>
					<g>
						<g>
							<g>
								<path class="st3" d="M346.4,514.2h-40.5v-61.8h40.5V514.2z M309.6,510.5h33v-54.3h-33V510.5z"/>
							</g>
						</g>
					</g>
				</g>
				<rect x="309.2" y="473.7" class="st3" width="34" height="2.8"/>
				<rect x="309.2" y="493" class="st3" width="34" height="2.8"/>
				
					<rect x="297" y="481.8" transform="matrix(-1.836970e-16 1 -1 -1.836970e-16 809.3199 156.9957)" class="st3" width="58.3" height="2.8"/>
			</g>
		</g>
		<g>
			<rect x="414.3" y="454.3" class="st8" width="36.8" height="58.1"/>
			<g>
				<g>
					<g>
						<path class="st3" d="M452.6,514.2h-40.5v-61.8h40.5V514.2z M415.9,510.5h33v-54.3h-33V510.5z"/>
					</g>
				</g>
				<rect x="415.4" y="473.7" class="st3" width="34" height="2.8"/>
				<rect x="415.4" y="493" class="st3" width="34" height="2.8"/>
				
					<rect x="403.2" y="481.8" transform="matrix(-1.836970e-16 1 -1 -1.836970e-16 915.5426 50.7731)" class="st3" width="58.3" height="2.8"/>
			</g>
		</g>
		<g>
			<rect x="520.6" y="454.3" class="st8" width="36.8" height="58.1"/>
			<g>
				<g>
					<g>
						<path class="st3" d="M558.9,514.2h-40.5v-61.8h40.5V514.2z M522.1,510.5h33v-54.3h-33V510.5z"/>
					</g>
				</g>
				<rect x="521.6" y="473.7" class="st3" width="34" height="2.8"/>
				<rect x="521.6" y="493" class="st3" width="34" height="2.8"/>
				
					<rect x="509.4" y="481.8" transform="matrix(-1.836970e-16 1 -1 -1.836970e-16 1021.7653 -55.4497)" class="st3" width="58.3" height="2.8"/>
			</g>
		</g>
	</g>
	<g>
		<rect x="308.1" y="653.4" class="st8" width="36.8" height="58.1"/>
		<g>
			<g>
				<g>
					<path class="st3" d="M346.4,713.3h-40.5v-61.8h40.5V713.3z M309.6,709.6h33v-54.3h-33V709.6z"/>
				</g>
			</g>
			<rect x="309.2" y="672.8" class="st3" width="34" height="2.8"/>
			<rect x="309.2" y="692.1" class="st3" width="34" height="2.8"/>
			
				<rect x="297" y="680.9" transform="matrix(-1.836970e-16 1 -1 -1.836970e-16 1008.4229 356.0987)" class="st3" width="58.3" height="2.8"/>
		</g>
	</g>
	<g>
		<rect x="414.3" y="653.4" class="st8" width="36.8" height="58.1"/>
		<g>
			<g>
				<g>
					<path class="st3" d="M452.6,713.3h-40.5v-61.8h40.5V713.3z M415.9,709.6h33v-54.3h-33V709.6z"/>
				</g>
			</g>
			<rect x="415.4" y="672.8" class="st3" width="34" height="2.8"/>
			<rect x="415.4" y="692.1" class="st3" width="34" height="2.8"/>
			
				<rect x="403.2" y="680.9" transform="matrix(-1.836970e-16 1 -1 -1.836970e-16 1114.6455 249.876)" class="st3" width="58.3" height="2.8"/>
		</g>
	</g>
	<g>
		<rect x="520.6" y="653.4" class="st8" width="36.8" height="58.1"/>
		<g>
			<g>
				<g>
					<g>
						<g>
							<path class="st3" d="M558.9,713.3h-40.5v-61.8h40.5V713.3z M522.1,709.6h33v-54.3h-33V709.6z"/>
						</g>
					</g>
				</g>
			</g>
			<rect x="521.6" y="672.8" class="st3" width="34" height="2.8"/>
			<rect x="521.6" y="692.1" class="st3" width="34" height="2.8"/>
			
				<rect x="509.4" y="680.9" transform="matrix(-1.836970e-16 1 -1 -1.836970e-16 1220.8683 143.6533)" class="st3" width="58.3" height="2.8"/>
		</g>
	</g>
	<rect x="592.7" y="530.3" class="st3" width="575" height="20.2"/>
	<g>
		<path class="st9" d="M1260.1,173.1c-4.9,0.3-8.7,4.5-8.4,9.5s4.5,8.7,9.5,8.4c4.7-0.3,8.4-4.2,8.4-8.9
			C1269.3,177,1265.1,173,1260.1,173.1z"/>
		<path class="st9" d="M1234.9,206.2c-0.6,0-1.3-0.3-1.7-0.7c-12.9-12-13.7-32.2-1.6-45.2c0.5-0.6,1.1-1.1,1.6-1.6
			c1-0.9,2.5-0.9,3.5,0c0.9,0.8,1,2.2,0.2,3.1c-0.1,0.1-0.1,0.1-0.2,0.2c-11.1,10.4-11.8,27.8-1.4,38.9c0.4,0.5,0.9,1,1.4,1.4
			c0.9,0.8,1,2.2,0.2,3.1c-0.1,0.1-0.1,0.1-0.2,0.2C1236.1,206,1235.5,206.2,1234.9,206.2z"/>
		<path class="st9" d="M1285.3,206.2c-0.6,0-1.3-0.3-1.7-0.7c-0.9-0.8-1-2.2-0.2-3.1c0.1-0.1,0.1-0.1,0.2-0.2
			c11.1-10.4,11.8-27.8,1.4-38.9c-0.4-0.5-0.9-1-1.4-1.4c-0.9-0.8-1-2.2-0.2-3.1c0.1-0.1,0.1-0.1,0.2-0.2c1-0.9,2.5-0.9,3.5,0
			c12.9,12,13.7,32.2,1.6,45.2c-0.5,0.6-1.1,1.1-1.6,1.6C1286.6,206,1285.9,206.2,1285.3,206.2z"/>
		<path class="st9" d="M1245.3,196.5c-0.6,0-1.3-0.3-1.7-0.7c-7.5-6.9-8-18.5-1.2-26.1c0.4-0.4,0.8-0.8,1.2-1.2c1-0.9,2.5-0.9,3.5,0
			c0.9,0.8,1,2.2,0.2,3.1c-0.1,0.1-0.1,0.1-0.2,0.2c-5.7,5.3-6.1,14.2-0.8,19.9c0.2,0.3,0.5,0.5,0.8,0.8c0.9,0.8,1,2.2,0.2,3.1
			c-0.1,0.1-0.1,0.1-0.2,0.2C1246.6,196.2,1246,196.5,1245.3,196.5z"/>
		<path class="st9" d="M1274.8,196.5c-0.6,0-1.3-0.3-1.7-0.7c-0.9-0.8-1-2.1-0.2-3c0.1-0.1,0.1-0.2,0.2-0.2c5.7-5.3,6-14.3,0.7-20
			c-0.2-0.2-0.5-0.5-0.7-0.7c-0.9-0.8-1-2.1-0.2-3c0.1-0.1,0.1-0.2,0.2-0.2c1-0.9,2.5-0.9,3.4,0c7.5,6.9,8,18.5,1.2,26.1
			c-0.4,0.4-0.8,0.8-1.2,1.2C1276.1,196.2,1275.5,196.5,1274.8,196.5z"/>
	</g>
	<rect x="1202.9" y="228.9" class="st10" width="114.3" height="57.7"/>
	<g>
		<defs>
			<rect id="SVGID_1_" x="1202.9" y="228.3" width="114.3" height="58.2"/>
		</defs>
		<clipPath id="SVGID_00000069381057028987614550000011766898693186723212_">
			<use xlink:href="#SVGID_1_"  style="overflow:visible;"/>
		</clipPath>
		<g style="clip-path:url(#SVGID_00000069381057028987614550000011766898693186723212_);">
			<polygon class="st12" points="1279.6,228.9 1279.6,283.6 1207,283.6 1207,228.9 1279.6,228.9 			"/>
			<g>
				<path class="st2" d="M1234.9,262l-3.7-2.3c-1.5-1.2-3.6-1.1-4.9,0.3c-0.4,1.1,0.1,2.4,1.2,2.9l6.2,3.8c0.9,0.8,2.3,0.7,3.1-0.2
					C1237.7,265.2,1236.8,263.2,1234.9,262z"/>
				<rect x="1233" y="290.1" class="st13" width="3.8" height="9.5"/>
				<rect x="1295.6" y="290.1" class="st13" width="3.8" height="10.6"/>
				<rect x="1233.6" y="290.1" class="st13" width="65.8" height="6.6"/>
				<path class="st14" d="M1233,304.3c2.1,0,3.8-1.7,3.8-3.8v-1.7h-3.8V304.3z"/>
				<circle class="st15" cx="1232.3" cy="303.9" r="3.1"/>
				<path class="st15" d="M1232.3,301.9c-1.1,0-2,0.9-2,2c0,1.1,0.9,2,2,2c1.1,0,2-0.9,2-2c0,0,0-0.1,0-0.1
					C1234.3,302.8,1233.4,301.9,1232.3,301.9C1232.4,301.9,1232.3,301.9,1232.3,301.9z"/>
				<path class="st14" d="M1295.6,304.3c2.1,0,3.8-1.7,3.8-3.8v-1.7h-3.8V304.3z"/>
				<circle class="st15" cx="1294.9" cy="303.9" r="3.1"/>
				<path class="st15" d="M1294.9,301.9c-1.1,0-2,0.9-2,2c0,1.1,0.9,2,2,2c1.1,0,2-0.9,2-2c0,0,0-0.1,0-0.1
					C1297,302.8,1296.1,301.9,1294.9,301.9C1295,301.9,1295,301.9,1294.9,301.9z"/>
				<rect x="1236.8" y="287.7" class="st16" width="58.9" height="2.4"/>
				<path class="st2" d="M1302.7,277h-53.7l-21.7-14.5c-1.3-1-3.2-0.7-4.1,0.6c-1,1.3-0.7,3.2,0.6,4.1c0.1,0.1,0.2,0.1,0.2,0.2
					l23.5,15.7h54.9c1.7-0.1,3.1-1.5,3.2-3.2c0-1.6-1.3-2.9-2.9-2.9C1302.8,277,1302.8,277,1302.7,277z"/>
				<polygon class="st13" points="1226.5,272.5 1237,286.6 1238.2,285.8 1227.7,271.6 				"/>
				<rect x="1216.9" y="284.7" class="st13" width="93.8" height="2.9"/>
				<path class="st13" d="M1307.7,283.1h-60.2l-25.2-16.9c-0.8-0.5-1.8-0.3-2.3,0.5c-0.5,0.7-0.3,1.8,0.4,2.3c0,0,0,0,0,0l26,17.3
					h61.2c0.9-0.1,1.6-0.9,1.5-1.8c-0.1-0.8-0.7-1.4-1.5-1.5V283.1z"/>
				<path class="st13" d="M1309.4,270.1c-0.7,0-1.3,0.6-1.3,1.3v0v16.4h2.6v-16.4C1310.7,270.7,1310.1,270.1,1309.4,270.1
					L1309.4,270.1z"/>
				<polygon class="st17" points="1215.7,252.8 1215.7,279.2 1216.8,279.2 1216.8,253.5 1240.2,234.8 1258.5,234.8 1258.5,233.7 
					1239.6,233.7 				"/>
				<path class="st13" d="M1216.1,255.6c-1,0-1.8,0.8-1.8,1.8v30.3h3.6v-30.3C1217.9,256.4,1217.1,255.6,1216.1,255.6z"/>
				<path class="st18" d="M1245.2,239.3c-0.4-0.8-1.4-1-2.2-0.6c-0.2,0.1-0.4,0.3-0.6,0.6l-4.2,7.4c-0.3,0.5-0.3,1.1,0,1.6
					c0.3,0.5,0.8,0.8,1.4,0.8h8.5c0.9,0,1.6-0.7,1.6-1.6c0-0.3-0.1-0.6-0.2-0.8L1245.2,239.3z M1248.9,247.9
					c-0.1,0.3-0.4,0.4-0.7,0.4h-8.5l0,0c-0.3,0-0.6-0.2-0.8-0.4c-0.2-0.3-0.2-0.6,0-0.8l4.2-7.4c0.2-0.3,0.4-0.4,0.8-0.4
					c0.3,0,0.6,0.2,0.7,0.4l4.3,7.4C1249,247.2,1249,247.6,1248.9,247.9L1248.9,247.9z"/>
				<rect x="1243.4" y="233.7" class="st18" width="1.1" height="6.4"/>
				<path class="st2" d="M1297,274.9h-39.3v8.2h48.1v-2.7C1305.8,277.4,1301.9,274.9,1297,274.9z"/>
				<path class="st19" d="M1249.1,276.4v6.8h17c0-5.1-0.2-3.7-0.3-8.8H1251C1249.9,274.4,1249.1,275.3,1249.1,276.4
					C1249.1,276.3,1249.1,276.3,1249.1,276.4z"/>
				<path class="st13" d="M1266.1,271.7h-44.5c-2.5,0-4.5,2-4.5,4.5c0,0,0,0,0,0v8.5c0,0.4,0.3,0.7,0.7,0.8c0,0,0,0,0,0h52
					c0.4,0,0.7-0.3,0.7-0.7c0,0,0,0,0,0v-8.5C1270.6,273.8,1268.6,271.7,1266.1,271.7C1266.2,271.7,1266.2,271.7,1266.1,271.7z
					 M1269.1,284h-50.5v-7.8c0-1.7,1.3-3,3-3h44.5c1.6,0,3,1.3,3,3c0,0,0,0,0,0V284z"/>
			</g>
		</g>
	</g>
</g>
<g>
	<g>
		<ellipse class="st0" cx="1115.6" cy="930.2" rx="92" ry="7.2"/>
		<ellipse class="st0" cx="1226.7" cy="924.5" rx="6.7" ry="1.1"/>
		<g>
			<g>
				<g>
					<path class="st20" d="M1215.1,670l3.6,0.2c0,0,0.7,0.4-0.7,4.2c-1.8,4.8-5.2,8.9-7.4,7.1C1208.4,679.6,1213.9,670.1,1215.1,670
						z"/>
					<g>
						
							<rect x="1224.5" y="690.5" transform="matrix(-1 -4.274593e-11 4.274593e-11 -1 2453.4102 1614.0983)" class="st21" width="4.4" height="233.2"/>
						<path class="st22" d="M1224.7,924.5c0.5,0.2,1.1,0.3,1.7,0.4c0.6,0,1.1,0,1.6-0.3c1.2-0.6,1.3-2.1,1.4-3.3
							c0.1-1.3,0.2-2.5,0.2-3.8c0-0.1,0-0.2-0.1-0.4c0.1-0.2,0.2-0.5,0.1-0.8c-0.1-0.5-0.7-0.8-1.2-0.7c-1.1,0.3-2.2,0.3-3.3,0
							c-0.6-0.1-1.2,0.3-1.2,1c-0.1,1.5-0.1,2.9-0.2,4.4C1223.7,922.2,1223.4,923.8,1224.7,924.5z"/>
						<path class="st22" d="M1210.5,684.4c0.1,1.6,1.9,1.8,3.2,1.6c2.2-0.3,3.1-0.1,5.3-0.4c0.9-0.1,2.2-0.5,3-0.1
							c0.9,0.4,0.9,1.6,1,2.4c0.2,2.3,0.4,4.6,0.4,6.9c0,4.8,0.2,9.3,0,14c0,0.7,0.6,1,1.2,1c1.3-0.1,2.9,0.2,4.4-0.1
							c0.6-0.1,0.5-1.7,0.5-2.2c0-5.3-0.1-10.4,0.1-16.1c0.1-1.3,0.4-2.6,0.7-3.9c0.2-1.2,0.7-2.4,0.7-3.6c0-0.8-0.3-1.5-0.8-2
							c-0.1-0.1-0.2-0.3-0.4-0.3c-3.8-1.7-8-2.3-12.1-1.5c-1.8,0.3-3.1,0.9-4.8,1.7C1211.7,682.3,1210.3,682.7,1210.5,684.4z"/>
					</g>
					<g>
						<path class="st23" d="M1212.1,677.7c0.8,0.6,2.5,2,3.3,2.5c0.6,0.3,0.3,2,0.7,2.6c0.7,1.2,0.8,1.4,1.9,2.5
							c1.6,1.7,3.8,3.3,4.5,2.1c0.7-1.4-1.5-2.7-1.6-4.1c-0.3-2,3.7-2.3,5.5-1.9c1.6,0.3,2.5,0.5,3.4,0.9c0.5,0.2,1.2,1.5,0.7,3.2
							c-0.3,1.1-0.7,2.8,0,2.8c2.5,0.1,4.2-2.2,4.7-4.6c0.7-2.9-0.7-5.9-3-7.7c-2.5-2-5.5-2.7-8.6-3.3c-1.7-0.3-3.2-0.8-4.5-1.8
							c-1-0.8-2-1.6-3.3-2c-0.1,0-0.2,0-0.3,0c-1.9-1.9-5,0.7-6.2,2.5C1207.3,674.6,1209.7,675.9,1212.1,677.7z"/>
						<g>
							<path class="st24" d="M1225.5,677c2.2-0.3,4.6,0.5,6.2,2c1.6,1.5,2.5,3.8,2.4,6c0,0.8-1.3,0.8-1.3,0c0.1-1.9-0.6-3.8-2-5.1
								c-1.4-1.3-3.4-1.9-5.3-1.6c-0.3,0-0.6-0.3-0.6-0.6C1224.8,677.3,1225.1,677.1,1225.5,677L1225.5,677z"/>
						</g>
						<g>
							<path class="st24" d="M1229.1,675.5c2.2,0.6,4.6,1.9,5.5,4.2c0.1,0.3-0.1,0.7-0.4,0.8c-0.4,0.1-0.7-0.1-0.8-0.4
								c0,0,0-0.1,0-0.1c0,0,0,0,0,0.1c0,0,0,0,0-0.1c0-0.1-0.1-0.2-0.1-0.2c-0.1-0.2-0.2-0.3-0.3-0.5c0,0-0.1-0.2,0,0
								c0,0-0.1-0.1-0.1-0.1c-0.1-0.1-0.1-0.2-0.2-0.2c-0.2-0.2-0.3-0.3-0.5-0.5c0,0-0.1-0.1-0.1-0.1c0.1,0.1-0.1,0-0.1-0.1
								c-0.1-0.1-0.2-0.2-0.3-0.2c-0.2-0.2-0.5-0.3-0.8-0.4c-0.6-0.3-1.3-0.5-1.9-0.7C1227.9,676.5,1228.3,675.3,1229.1,675.5
								L1229.1,675.5z"/>
						</g>
					</g>
					<path class="st25" d="M1161.8,663.2c0,0,9.9,4.1,19.9,9c5.9,2.9,21.7,7.4,22.6,5.6c0.1-0.2,4,2.8,6.2,3.7c0,0,0.7-2.5,2.7-5.8
						c3-4.8,5.5-5.3,5.4-5.5c-2.4-2.3-1.9-1.7-4.5-3.7c-4.7-6.7-26-25.4-41-34.3C1158.3,623.3,1154.4,658.9,1161.8,663.2z"/>
					<path class="st26" d="M1189.8,643c-0.2-17-5.8-54.2-11.5-64c-3.2-5.4-16.3,27.7-17.3,45.8c-1,18.1,3.3,38.5,9.2,41.7
						C1176.1,669.9,1190.1,671.6,1189.8,643z"/>
					<g>
						<path class="st27" d="M1179.9,638.9c0-0.5,0.5-0.7,0.9-0.6c0.2,0.1,0.4,0.2,0.6,0.3c0.7,0.3,1.4,0.7,2.1,1
							c1.7,0.8,3.3,1.7,5,2.6c0.4,0.2,1.2,0.5,1.4,1c0.3,0.8-0.9,1.1-1.2,0.3c0,0.1,0.2,0.3,0.3,0.4c0,0,0,0-0.1,0
							c-0.1,0-0.1-0.1-0.2-0.1c-0.2-0.1-0.4-0.2-0.6-0.3c-0.7-0.4-1.3-0.7-2-1c-1.5-0.8-3-1.6-4.6-2.3c-0.3-0.1-0.6-0.3-0.8-0.4
							c-0.1,0-0.3-0.1-0.2-0.1c0.1,0.1,0,0,0,0c-0.3,0,1.4-0.9,0.6-0.2c0.1-0.2,0.1-0.3,0.2-0.5c0,0,0,0,0,0
							C1181.2,639.7,1180,639.7,1179.9,638.9L1179.9,638.9z"/>
					</g>
					<g>
						<path class="st27" d="M1213.8,667.4c-2.6,0.7-4.8,2.3-6.4,4.4c-1.2,1.5-2.2,3.4-2.5,5.3c-0.1,0.8-1.4,0.5-1.2-0.3
							c0.4-2.1,1.5-4.2,2.8-5.8c1.8-2.3,4.2-4.1,7-4.8C1214.3,666,1214.6,667.2,1213.8,667.4L1213.8,667.4z"/>
					</g>
				</g>
				<g>
					<g>
						<path class="st23" d="M1142,912.8c0.6,4.8,4.3,6.9,7.8,7.8c4.6,1.2,9.4,1.8,14.1,2.2c2,0.2,4.9,0.9,6.6-0.6
							c1.4-1.3,1.7-3.8,0.9-5.6c-1.9-4.7-7.1-4.6-10.5-6.8c-1.9-1.2-3.8-3.1-4.1-5.7c-0.3-2.9-0.3-5.6-0.3-8.5l0.4-18.5
							c0-0.5-0.2-0.9-0.5-1.1c0.3-3.3-1.8-6.6-4.8-7c-4.7-0.6-7.8,4.6-8.5,9.7c-0.4,2.8-0.2,5.6,0,8.4c0.1,3,0.2,6,0.1,9
							c-0.1,2.9-0.3,5.9-0.7,8.8C1142.2,907.5,1141.7,910.1,1142,912.8z"/>
						<path class="st22" d="M1139.7,919c0.4,3-1.4,4.6,3.9,5.2c7.4,0.9,11.5,3.2,17.7,4.4c3.1,0.6,8.2,1.7,11.4,1.6
							c3-0.1,5.8-0.3,7.8-1.9c2.1-1.7,1-7.3-1.9-9.7c-3.6-3-4.2-1.3-11.8-6.5c-1.5-2.2-4.6-3.4-7.2-2.1c-2.6,1.4-2.1,4.2-0.9,6.2
							c-6.2,0.1-12.2-2.7-16.2-7.6c-0.7-0.9-1.2,0.4-1.4,2.1C1140.5,913.9,1139.3,915.7,1139.7,919z"/>
						<g>
							<path class="st28" d="M1167.4,913.2c-1.4,0.8-2.8,1.6-4.2,2.5c-0.3,0.2-0.7,0.1-0.9-0.2c-0.2-0.3-0.1-0.7,0.2-0.9
								c1.4-0.8,2.8-1.6,4.2-2.5c0.3-0.2,0.7-0.1,0.9,0.2C1167.8,912.7,1167.7,913.1,1167.4,913.2L1167.4,913.2z"/>
						</g>
						<g>
							<path class="st28" d="M1168.9,920.9c-3.2-0.9-6.3-2.2-9.2-3.9c-0.7-0.4-0.1-1.5,0.6-1.1c2.8,1.6,5.8,2.9,8.9,3.7
								C1170,919.9,1169.7,921.1,1168.9,920.9L1168.9,920.9z"/>
						</g>
						<g>
							<path class="st28" d="M1181.3,925.8c-4.7,2.7-10.2,2.3-15.3,1.2c-5.7-1.1-11-3.4-16.4-5.2c-2.9-1-6.1-0.7-9-1.9
								c-0.8-0.3-0.4-1.6,0.3-1.2c2.5,1,5.2,1,7.8,1.6c1.3,0.3,2.6,0.8,3.9,1.3c1.3,0.5,2.6,0.9,4,1.4c5.2,1.8,10.6,3.4,16.2,3.6
								c2.7,0.1,5.5-0.6,7.8-1.9C1181.4,924.3,1182.1,925.4,1181.3,925.8L1181.3,925.8z"/>
						</g>
					</g>
					<g>
						<path class="st23" d="M1057.9,906c-1,4.7,1.8,7.9,4.8,10c4,2.6,8.3,4.8,12.6,6.7c1.8,0.8,4.3,2.5,6.5,1.6c1.8-0.7,1.9-1,1.8-3
							c-0.3-5-4.3-8.7-6.8-11.8c-1.4-1.7-3.5-4.4-2.9-7c0.7-2.8,2.1-6,3-8.7l6.9-16.4c0.2-0.5,0.1-0.9-0.1-1.2
							c1.4-3,0.5-6.8-2.2-8.2c-4.3-2.2-8.9,1.8-11.2,6.4c-1.3,2.5-2,5.2-2.8,7.9c-0.8,2.9-1.8,5.7-2.9,8.5c-1.1,2.7-2.2,5.4-3.5,8.1
							C1059.9,901.1,1058.4,903.4,1057.9,906z"/>
						<path class="st22" d="M1053.7,911.1c-0.6,3-2.2,2.8,2,6.2c4.8,4,9.2,7.2,14.6,10.4c2.7,1.6,7.9,3.8,10.9,4.8
							c2.9,0.9,5.9,1.3,8.3,0.4c2.5-1,3.8-5.3,1.9-8.5c-2.4-4.1-5.2-2.1-9.7-10.9c-0.7-2.6-3.2-4.8-6.1-4.3
							c-2.9,0.4-3.7,3.5-3.3,5.7c-5.9-2-10.3-6.8-12.5-12.7c-0.4-1-1,0.1-2,1.5C1055.8,906.3,1054.3,907.9,1053.7,911.1z"/>
						<g>
							<path class="st28" d="M1081.8,914.8c-1.4,0.6-3,0.9-4.5,1.2c-0.3,0.1-0.7-0.1-0.8-0.4c-0.1-0.3,0.1-0.7,0.4-0.8
								c1.5-0.3,3-0.6,4.5-1.2c0.3-0.1,0.7,0.1,0.8,0.4C1082.3,914.4,1082.1,914.7,1081.8,914.8L1081.8,914.8z"/>
						</g>
						<g>
							<path class="st28" d="M1080.8,922.6c-3.3-1.2-5.8-3.7-8-6.3c-0.5-0.6,0.4-1.5,0.9-0.9c2.1,2.4,4.4,4.9,7.5,6
								C1081.9,921.7,1081.6,922.9,1080.8,922.6L1080.8,922.6z"/>
						</g>
						<g>
							<path class="st28" d="M1090.8,931.2c-2.1,0.4-4.2,0.1-6.3-0.3c-1.4-0.3-2.9-0.6-4.3-1.1c-2.6-0.9-5-2.2-7.4-3.6
								c-5.1-3.1-9.9-6.7-14.5-10.4c-1.4-1.2-2.8-2.3-4.2-3.5c-0.6-0.6,0.3-1.5,0.9-0.9c3,2.7,6.3,5.3,9.5,7.7
								c2.4,1.8,4.9,3.6,7.5,5.2c2.4,1.5,4.8,2.9,7.4,4c1.3,0.5,2.6,0.9,4,1.2c2.3,0.5,4.7,1,7,0.6
								C1091.3,929.8,1091.6,931.1,1090.8,931.2L1090.8,931.2z"/>
						</g>
					</g>
					<path class="st29" d="M1108.2,699c0,9.5,0.6,19,1.5,28.5c1.9,19,4.2,6.3,7.9,25c3.7,18.8,9.2,46.2,12.5,65.1
						c1.7,9.9,3,42.6,4.2,52.6c0.6,5.1,1,10.2,1.4,15.2c0.3,5,0.1,9.6,5.3,11.9c8.2,3.7,29.7,4.4,30.1-3.9c0.2-3.5-0.9-10-1.1-13.5
						c-0.8-16.7,0.5-34.2-0.2-50.9c-0.7-16.8,0.2-32.5-0.4-49.3c-1-28.9-5.2-57.7-8-86.5c-0.1,1.7-0.2,3.5-0.3,5.2
						c0.5-10.7,0.7-21.5-1.6-31.9c-0.5-2.4-1.2-4.7-2.7-6.6c-6.6-8.5-12.5,5.3-19.4,4.8c-4.9-0.4-9.1-6.1-14-6.4
						c-3.6-0.2-7.6,1.6-10.7,3.7c-3.5,2.3-3.7,19.1-4,23.1C1108.1,689.6,1108.1,694.3,1108.2,699z"/>
					<g>
						<path class="st29" d="M1062.2,890c2.9,7.7,22.2,12.4,26.4,11.4c1.8-0.4,2.8-4.2,3.3-5.7c1.3-3.7,2.4-7.5,3.4-11.3
							c6.8-24.7,14.1-49.3,18.6-74.6c4.6-25.8,8.7-51.6,15-77c2.7-10.9,10.9-17.4,12.5-28.5c1.5-10.6,2.1-21.7-1-32.1
							c-2.4-8-7.2-15.5-13.9-20.6c-6.9-5.2-19.4-9.4-27.9-7.3c-8.8,2.2-13.1,2.8-16.1,11.2c-8.1,22.5-7,60.4-7.4,80.8
							c-0.4,23.2,2.1,41.6,0.7,64.7c-0.5,8.1-2.3,17.3-5.6,40.4c-0.8,5.4-5.4,30.4-6.7,35.2C1062.3,881.5,1061.2,887.4,1062.2,890z"
							/>
						<g>
							<path class="st30" d="M1132.2,715.5c-2.9,13.6-5.3,27.4-8,41.1c-0.7,3.8-1.5,7.6-2.3,11.4c-0.2,0.9-1.6,0.5-1.4-0.4
								c2.9-13.6,5.3-27.4,8-41.1c0.7-3.8,1.5-7.6,2.3-11.4C1131,714.2,1132.4,714.6,1132.2,715.5L1132.2,715.5z"/>
						</g>
						<g>
							<path class="st30" d="M1087.4,679.7c-0.8,13.4-1.4,26.7-1.9,40.1c-0.5,12.9-0.9,25.9-1.5,38.8c-0.6,13-1.3,26-2.4,38.9
								c-1.1,13.3-2.7,26.6-4.7,39.8c-2.2,14.1-5,28.1-8.3,42c-0.5,1.8-0.9,3.7-1.4,5.5c-0.2,0.9-1.7,0.5-1.4-0.4
								c3.6-14,6.6-28.1,8.9-42.3c2.2-13.3,3.8-26.7,5.1-40.2c1.2-12.9,2-25.9,2.6-38.8c0.6-12.9,1-25.8,1.5-38.7
								c0.5-13.2,1-26.4,1.8-39.5c0.1-1.7,0.2-3.4,0.3-5.2C1086,678.8,1087.5,678.8,1087.4,679.7L1087.4,679.7z"/>
						</g>
						<g>
							<path class="st30" d="M1101.6,681.5c-2.5,8.8-7,17.1-12,24.7c-1.3,2-2.7,4-4.1,5.9c-0.6,0.8-1.8,0-1.3-0.7
								c5.3-7.2,10-14.9,13.4-23.1c1-2.3,1.8-4.7,2.5-7.2C1100.5,680.1,1101.9,680.5,1101.6,681.5L1101.6,681.5z"/>
						</g>
					</g>
					<g>
						<path class="st30" d="M1091.5,894.7c-8.4,0.2-17.3-2.2-23.8-7.7c-1.9-1.6-3.5-3.5-4.8-5.5c-0.5-0.8,0.8-1.5,1.3-0.7
							c4.5,7.1,12.7,10.8,20.7,12c2.2,0.3,4.4,0.5,6.7,0.4C1092.4,893.2,1092.4,894.7,1091.5,894.7L1091.5,894.7z"/>
					</g>
					<g>
						<path class="st30" d="M1170.3,887.3c-8.4,2.8-17.4,4.3-26.2,2.6c-2.5-0.5-4.9-1.2-7.3-2.2c-0.9-0.4-0.5-1.8,0.4-1.4
							c8.1,3.3,16.9,3.5,25.4,1.6c2.5-0.5,4.9-1.2,7.3-2.1C1170.9,885.6,1171.2,887,1170.3,887.3L1170.3,887.3z"/>
					</g>
					<g>
						<path class="st30" d="M1126.6,743.8c1.3,10,2.5,20.1,3.8,30.1c1.2,9.5,2.4,18.9,3.9,28.3c1.4,9,3,18,4.1,27.1
							c1.1,9.5,2,19,2.7,28.5c0.7,9.2,1.3,18.4,1.8,27.6c0.1,1.1,0.1,2.1,0.2,3.2c0.1,1-1.4,0.9-1.5,0c-0.5-9.1-1.1-18.2-1.7-27.2
							c-0.7-9.5-1.5-19.1-2.6-28.6c-0.5-4.5-1.1-9.1-1.8-13.6c-0.7-4.5-1.5-9-2.2-13.6c-1.5-9.4-2.7-18.8-3.9-28.2
							c-1.3-9.9-2.4-19.8-3.7-29.7c-0.2-1.3-0.3-2.6-0.5-4C1125,742.8,1126.5,742.8,1126.6,743.8L1126.6,743.8z"/>
					</g>
				</g>
				<g>
					<path class="st26" d="M1070.2,667c0.4,3.2,2.7,5.4,5.3,7.6c0.6,0.5,0,5.4,1.6,5.9c13.2,4,56.6,7.1,64.3,7.2
						c6.4,0.1,13.4,1.4,20.9-1.4c1.5-0.6-0.4-3.2,1.1-3.5c7.1-1.4,7.4-14.4,7.8-19.9c0.6-8,0.2-16,1.3-23.9
						c1.2-8.2,3.1-16.1,5.2-24.1c2-7.6,6.2-17.2,4.4-25c-2.3-9.7-4.6-14.3-12.4-20.3c-10.2-7.6-24.4-16.5-35.8-18.6
						c-8-1.5-16.2,0-24,2.2c-7.3,2-14.8,4.3-21.6,7.9c-6.4,3.4-11.5,8.4-15.2,14.6c-3.8,6.4,4.5,18.3,4.5,25.8
						c0,22.5-6.6,26.3-7.3,42.2c-0.2,4-0.3,8.1-0.4,12.1C1070,659.4,1069.7,663.3,1070.2,667z"/>
					<path class="st14" d="M1124.4,579.7c1.9,3.3,4,7,7.1,9.4c2.9,2.2,6.9,2.8,10.2,1.2c7-3.1,8.7-13.5,9.2-20.3
						c0.3-4.5,0.3-12.4-3.7-15.5c-2.9-2.2-4.8-4-8.2-5.4c-3.1-2.2-7.8-2.3-11.7-1.9c-4.1,0.5-9.3-1.5-9.8,6.7
						C1117.1,562.4,1120.6,573.1,1124.4,579.7z"/>
					<g>
						<path class="st31" d="M1150.1,575.9c-0.8,1.4-2.4,1.2-3.7,0.9c-1.1-0.3-2.1-0.7-3-1.3c-1.9-1.4-2.9-3.5-3.2-5.7
							c-0.1-0.3,0.1-0.7,0.4-0.8c0.3-0.1,0.7,0.1,0.8,0.4c0.3,1.8,1,3.6,2.4,4.8c0.6,0.5,1.4,0.9,2.2,1.2c0.8,0.3,2.4,0.9,3-0.1
							C1149.4,574.5,1150.5,575.2,1150.1,575.9L1150.1,575.9z"/>
					</g>
					<g>
						<path class="st31" d="M1141.3,569.3c0.3,2.5-0.9,5.3-2.5,7.2c-1.8,2.2-4.6,2.8-7.3,2.2c-3-0.7-5-2.8-6.9-5.1
							c-1.4-1.8-2.4-3.8-3.4-5.8c-1.2-2.5-2.4-5.2-3.4-7.8c-0.3-0.8,0.9-1.1,1.2-0.3c0.8,2.1,1.7,4.2,2.7,6.2c0.9,2,1.9,4,3.1,5.9
							c1.3,2,3,4.1,5.1,5.1c2.2,1.1,5.3,1.3,7.2-0.4c1.8-1.6,3.1-4.6,2.8-7C1139.9,568.5,1141.2,568.5,1141.3,569.3L1141.3,569.3z"
							/>
					</g>
					<g>
						<path class="st31" d="M1139.6,590.6c-0.1-0.4,0-1,0-1.4c0-1.1,0-2.2,0-3.3c0-3.1,0.1-6.3,0.2-9.4c0.1-1.6,0.1-3.2,0.2-4.9
							c0-0.8,1.3-0.8,1.3,0c-0.3,5.7-0.4,11.4-0.5,17.1c0,0.4,0,0.8,0,1.2c0,0.1,0,0.2,0,0.3c0,0.1,0,0.2,0,0
							C1141,591,1139.8,591.4,1139.6,590.6L1139.6,590.6z"/>
					</g>
					<path class="st31" d="M1141.5,576.1c0.1-0.4,0.3-0.8,0.7-0.9c0.2-0.1,0.5,0,0.7,0.2c0.1,0.1,0.2,0.3,0.2,0.5
						c0.1,0.4,0.1,1,0,1.4c-0.1,0.3-0.3,0.5-0.6,0.5C1141.7,577.7,1141.4,576.8,1141.5,576.1z"/>
					<path class="st31" d="M1141.7,586.4c0.1-0.4,0.3-0.8,0.7-0.9c0.2-0.1,0.5,0,0.7,0.2c0.1,0.1,0.2,0.3,0.2,0.5
						c0.1,0.4,0.1,1,0,1.4c-0.1,0.3-0.3,0.5-0.6,0.5C1141.9,588,1141.6,587.1,1141.7,586.4z"/>
					<g>
						<path class="st27" d="M1151.7,558.7c1.2,3,1.9,6.2,2.2,9.4c0.4,3.7,0.3,7.5-0.3,11.2c-0.3,1.9-0.7,3.7-1.3,5.5
							c-0.6,1.7-1.2,3.5-2.2,5c-0.8,1.3-2,2.5-3.2,3.5c-1.2,1-2.4,1.9-3.8,2.4c-2.9,1.1-6,1.5-9,0.7c-2.7-0.7-5.1-2.3-7-4.2
							c-4-3.9-6.5-9-8.7-14.1c-1.6-3.8-3-7.6-3.9-11.6c-0.8-3.6-1.4-7.5-0.7-11.2c0.2-0.8,0.4-1.7,0.7-2.4c0.3-0.8,1.5-0.4,1.2,0.3
							c-1.3,3.3-1.1,7-0.6,10.4c0.6,3.6,1.7,7.1,2.9,10.6c2,5.4,4.4,10.9,8.1,15.3c1.7,2,3.7,3.8,6.1,5c2.5,1.2,5.3,1.4,8,0.8
							c1.4-0.3,2.9-0.8,4.1-1.6c1.3-0.9,2.5-2,3.6-3.1c1-1.2,1.7-2.5,2.3-4c0.7-1.7,1.2-3.4,1.6-5.2c1.5-6.6,1.3-13.9-0.7-20.3
							c-0.2-0.6-0.4-1.3-0.7-1.9C1150.2,558.3,1151.4,557.9,1151.7,558.7L1151.7,558.7z"/>
					</g>
					<g>
						<path class="st27" d="M1173.5,604.6c0.6,10.7,0.3,21.3-0.6,32c-0.6,7.6-1.6,15.2-2.1,22.8c-0.1,2.6-0.3,5.3,0.2,7.7
							c0.2,0.8-1.1,1.1-1.2,0.3c-0.5-2.2-0.4-4.6-0.3-6.8c0.1-3.3,0.5-6.5,0.8-9.8c0.9-9.1,1.8-18.1,2.1-27.2
							c0.2-6.3,0.2-12.7-0.2-19C1172.2,603.8,1173.5,603.8,1173.5,604.6L1173.5,604.6z"/>
					</g>
					<g>
						<path class="st27" d="M1161.8,683.9c-2.3,0.3-4.6,0.5-6.9,0.7c-3.6,0.2-7.2,0.3-10.8,0.2c-5.2-0.1-10.4-0.5-15.5-1
							c-7-0.7-14-1.6-20.9-2.8c-9.2-1.5-18.3-3.3-27.4-5.3c-1.3-0.3-2.5-0.6-3.8-0.9c-0.8-0.2-0.5-1.4,0.3-1.2
							c9.3,2.1,18.6,4,28,5.6c7.2,1.2,14.4,2.3,21.7,3.1c5.3,0.6,10.7,1,16,1.1c3.7,0.1,7.5,0.1,11.2-0.1c2.4-0.1,4.9-0.4,7.3-0.7
							c0.2,0,0.4-0.1,0.7-0.1C1162.7,682.5,1162.6,683.8,1161.8,683.9L1161.8,683.9z"/>
					</g>
					<g>
						<path class="st27" d="M1170.7,661c-2.1,4.3-6.3,8.1-10.9,9.4c-0.8,0.2-1.1-1-0.3-1.2c4.4-1.2,8.2-4.8,10.2-8.9
							C1169.9,659.6,1171,660.2,1170.7,661L1170.7,661z"/>
					</g>
					<g>
						<path class="st26" d="M1057.7,639.6c0,0,8.1-62.9,19.9-69.9c11.8-7,19.9,18.8,19.3,21.3c-0.7,2.4-16.5,58.8-18.2,62.2
							c-2.6,5.5-16.4,8.8-19.7-2.4C1058.1,647.4,1057.7,639.6,1057.7,639.6z"/>
						<g>
							<path class="st27" d="M1097.1,595.1c-0.9,4-1.6,8.1-2.3,12.2c-0.9,5.1-1.8,10.2-2.9,15.2c-1.1,5.2-2.4,10.3-4.1,15.3
								c-1.5,4.4-3.4,8.8-6.1,12.6c-2.2,3.1-5.2,5.9-8.9,7.2c-0.4,0.1-0.9,0.3-1.3,0.4c-0.8,0.2-1.1-1-0.3-1.2
								c3.6-0.8,6.6-3.3,8.8-6.2c2.8-3.6,4.7-7.8,6.2-12c1.8-4.9,3.1-9.9,4.2-14.9c1.1-5,2-10,2.9-15.1c0.7-4.2,1.4-8.4,2.3-12.5
								c0.1-0.4,0.2-0.8,0.3-1.3C1096,593.9,1097.2,594.3,1097.1,595.1L1097.1,595.1z"/>
						</g>
					</g>
					<g>
						<path class="st27" d="M1126.7,642.6c-6.1,1.9-12.2,3.8-18.3,5.7c-0.8,0.2-1.1-1-0.3-1.2c6.1-1.9,12.2-3.8,18.3-5.7
							C1127.2,641.1,1127.5,642.4,1126.7,642.6L1126.7,642.6z"/>
					</g>
					<g>
						<path class="st27" d="M1083.2,630.9c-2.5-4-5-7.9-7.5-11.9c-0.4-0.7,0.7-1.3,1.1-0.6c2.5,4,5,7.9,7.5,11.9
							C1084.7,630.9,1083.6,631.6,1083.2,630.9L1083.2,630.9z"/>
					</g>
				</g>
				<g>
					<path class="st23" d="M1120.5,526.4c0.9,9.7,6.5,19.9,15.3,24.5c4.3,2.3,9.4,3.4,14.2,2.1c4.8-1.3,8-5,8.7-9.9
						c0.8-5.3,0.3-11,0-16.3c-0.4-5.7-1.2-11.4-2-17.1c-0.9-6.1-3.9-7.8-6.9-9.8c-5.1-3.3-10.8-1.3-15.2,2.2
						c-3.7,2.9-7.1,6.5-9.9,10.2C1121.6,516.4,1120.1,521.3,1120.5,526.4z"/>
					<path class="st23" d="M1147.2,548c0,0.3-1,16.1-1.1,16.4c-0.5,1.8-3.2,6.6-11.6,2c-5.4-3-8.8-7.8-10.5-10.8
						c-0.9-1.6-1.4-3.4-1.4-5.2l-0.3-25.9C1122.3,524.5,1148.7,535.7,1147.2,548z"/>
					<path class="st32" d="M1153.7,515.5c0.4-1.4,1.9-2,3.2-1.9c1.1,0.1,3,1.5,2.3,3c-0.2,0.4-0.6,0.6-0.9,0.8
						C1157.1,517.9,1152.9,518.1,1153.7,515.5z"/>
					<path class="st32" d="M1141,515.3c0.9-1.3,2.4-1.9,3.9-1.8c1.4,0.1,3.4,0.9,3.2,2.7c0,0.2-0.1,0.5-0.3,0.7
						c-0.6,0.9-1.9,1-2.9,1.1c-1,0.1-1.9,0-2.9-0.2c-0.5-0.1-1-0.4-1.3-0.9C1140.6,516.3,1140.7,515.7,1141,515.3z"/>
					<g>
						<path class="st24" d="M1146.1,552.7C1146.1,552.7,1146.2,552.7,1146.1,552.7c0.2,0,0.3,0,0.3,0.1c0.1,0,0.1,0.1,0.2,0.1
							c0.1,0.1,0.1,0.1,0.1,0.2c0,0.1,0.1,0.2,0.1,0.2c0,0.1,0,0.1,0,0.2c0,0.1-0.1,0.2-0.2,0.3c0,0-0.1,0.1-0.1,0.1
							c-0.1,0.1-0.2,0.1-0.3,0.1c0,0-0.1,0-0.1,0c-0.1,0-0.2,0-0.2-0.1c-0.1,0-0.1-0.1-0.2-0.1c-0.1-0.1-0.1-0.1-0.1-0.2
							c0-0.1-0.1-0.2-0.1-0.2c0-0.1,0-0.1,0-0.2c0-0.1,0.1-0.2,0.2-0.3c0,0,0.1-0.1,0.1-0.1C1145.9,552.7,1146,552.7,1146.1,552.7
							L1146.1,552.7z"/>
					</g>
					<g>
						<path class="st24" d="M1146.1,553.9c-6.8,0.2-12.9-3.9-15.4-10.2c-0.3-0.8,0.9-1.1,1.2-0.3c2.2,5.8,8,9.5,14.1,9.3
							C1146.9,552.6,1146.9,553.9,1146.1,553.9L1146.1,553.9z"/>
					</g>
					<path class="st14" d="M1154,535.6l-6.9-0.2c-0.3,0-0.6,0.3-0.5,0.7c0.3,1.1,1.3,3.3,4.2,3.4c2.8,0.1,3.5-2.2,3.6-3.3
						C1154.5,535.8,1154.3,535.6,1154,535.6z"/>
					<path class="st33" d="M1143.1,521.3c0.1-0.5,0.3-1,0.7-1.3c0.9-0.8,1.9,0,2.2,1c0.2,0.8,0.2,2.1-0.2,2.9
						c-0.2,0.4-0.6,0.7-1.1,0.6c-0.4,0-0.8-0.2-1-0.6C1143.1,523.3,1142.9,522.2,1143.1,521.3z"/>
					<path class="st33" d="M1154.4,521.1c0.1-0.5,0.3-1,0.7-1.3c0.9-0.8,1.9,0,2.2,1c0.2,0.8,0.2,2.1-0.2,2.9
						c-0.2,0.4-0.6,0.7-1.1,0.6c-0.4,0-0.8-0.2-1-0.6C1154.5,523.1,1154.3,522,1154.4,521.1z"/>
					<g>
						<path class="st32" d="M1123,498.4c1.3,1,3.5,1.1,5.1,1.1c1.7,0.1,3.4-0.1,5-0.2c3.5-0.2,6.9,0.1,10.1,1.4
							c3.3,1.4,6.4,2.7,8.9,5.2c1.2,1.2,3.3,3.2,4.5,4.4c0.8,0.8,0.8-0.3,0.8-1.5c0-6.2-4-11.6-9.1-14.8c-6.6-4.1-14.1-4.1-21.5-2.2
							C1125,492.2,1120.5,496.4,1123,498.4z"/>
						<path class="st32" d="M1115.1,520.7c0.9,1.1,2,2.1,3.5,2.1c1.6,0,2.5-1.6,4-1.8c4.1-0.6,7.5-3.3,10.4-5.7
							c5.4-4.4,9.9-9.4,13.8-15.2c0.2-0.3-0.7-1.6-0.8-1.9c0.2-0.7,0-1.6-0.6-2.2c-1.2-1.2-3.6-2.3-5.2-2.7
							c-4.1-1-10.8-0.5-15.1-0.4c-3.1,0-4.6,0.1-7.2,1.8c-2.7,1.8-3.5,4.3-4.5,7.3C1111.4,507.9,1111.1,515.6,1115.1,520.7z"/>
						<path class="st32" d="M1121.2,518.9c0.3,1.9,0.6,3.9,0.9,5.8c0.2,1.6,0.8,3.1,0.6,4.7c-0.1,1.2-1.2,2.5-0.5,5.3
							c0.1,0.3,0.4,3.7,0.2,3.9c-1.1,1.5-6.4-3-7-3.7c-3.2-3.5-5.3-7.7-5.8-12.4c-0.7-5.3,0.1-10.8,1-16.1c0.4-2.3,1.5-3.6,3.6-6.8
							c0.4-0.6,0.6-1.2,1.3-1.1C1118.8,499.2,1124.5,514.5,1121.2,518.9z"/>
						<path class="st32" d="M1123.8,500.9c0,0-1.1-5.8-5.8-6.7c-4.7-0.9-10.2,1.3-11.6,5c-2.6,7,2.5,12.8,5.3,12.9
							C1114.5,512.2,1122.8,506.6,1123.8,500.9z"/>
						<g>
							<path class="st34" d="M1145.1,501.7c-1.4-2.8-4.1-4.6-7-5.6c-2.9-1.1-5.9-1.7-9-2c-1.2-0.1-2.5-0.2-3.7-0.3
								c-0.8,0-0.8-1.3,0-1.3c2.7,0.1,5.3,0.4,8,0.9c3.3,0.7,6.6,1.7,9.3,3.7c1.5,1.1,2.7,2.4,3.5,4
								C1146.6,501.8,1145.5,502.4,1145.1,501.7L1145.1,501.7z"/>
						</g>
						<g>
							<path class="st34" d="M1118.7,495.3c-5,3.3-8.2,9-8.3,15c0,0.8-1.3,0.8-1.3,0c0.1-6.4,3.5-12.6,8.9-16.1
								C1118.7,493.7,1119.4,494.9,1118.7,495.3L1118.7,495.3z"/>
						</g>
						<g>
							<path class="st34" d="M1136.6,506.7c-3.5,3.1-7.1,6.3-10.6,9.4c-3,2.7-6.2,5.3-7.8,9c-0.3,0.8-1.4,0.1-1.1-0.6
								c1.7-3.8,4.9-6.5,7.9-9.1c3.6-3.2,7.2-6.4,10.8-9.6C1136.3,505.2,1137.2,506.1,1136.6,506.7L1136.6,506.7z"/>
						</g>
						<g>
							<path class="st34" d="M1146.3,499c3.3,0.1,6.4,1.4,8.8,3.6c0.6,0.6-0.3,1.5-0.9,0.9c-2.1-2-5-3.1-7.9-3.2
								C1145.5,500.3,1145.5,499,1146.3,499L1146.3,499z"/>
						</g>
						<g>
							<path class="st34" d="M1128.9,496.3c-5.7,1.7-10.3,6.3-11.9,12c-0.2,0.8-1.5,0.5-1.2-0.3c1.7-6.1,6.7-11.1,12.8-12.9
								C1129.3,494.8,1129.7,496.1,1128.9,496.3L1128.9,496.3z"/>
						</g>
					</g>
					<g>
						<g>
							<path class="st35" d="M1161.9,519.5c0.4,1.2,0.5,2.5,0.4,3.8c-0.1,1.2-0.4,2.4-1.2,3.4c-1.2,1.5-3.2,1.8-4.9,1.1
								c-2-0.8-3.1-2.8-3.2-4.9c-0.1-2.2,0.8-4.8,2.9-5.9c1.1-0.6,2.4-0.7,3.6-0.3C1160.7,517.2,1161.5,518.3,1161.9,519.5
								c0.2,0.6-0.7,0.9-1,0.3c-0.3-0.9-0.9-1.8-1.8-2.2c-0.8-0.3-1.8-0.3-2.6,0.1c-1.7,0.8-2.5,2.9-2.6,4.7c0,1.8,0.7,3.5,2.4,4.4
								c1.2,0.6,2.8,0.6,3.8-0.4c0.8-0.8,1.1-1.9,1.2-2.9c0.1-1.2,0-2.5-0.3-3.6C1160.8,519.2,1161.7,518.9,1161.9,519.5z"/>
						</g>
						<g>
							<path class="st35" d="M1150.5,520c0.8,2,0.8,4.5-0.1,6.6c-1,2.3-3.1,3.3-5.5,3.1c-2.9-0.2-5-2.3-5.4-5.2
								c-0.4-2.7,0.5-6,3.2-7.3c1.4-0.6,3.1-0.9,4.6-0.4C1148.7,517.2,1149.9,518.5,1150.5,520c0.2,0.6-0.7,0.8-1,0.3
								c-0.5-1.1-1.4-2.1-2.6-2.5c-1.1-0.4-2.4-0.2-3.5,0.2c-2.5,0.9-3.3,3.6-3.1,6.1c0.2,2.4,1.9,4.4,4.4,4.7
								c2,0.2,3.7-0.5,4.6-2.3c0.9-1.8,0.8-4.2,0.1-6.1C1149.3,519.6,1150.2,519.4,1150.5,520z"/>
						</g>
						<g>
							<path class="st24" d="M1150.2,531.7c1.1-0.1,2.3-0.2,3.3-0.7c0.8-0.4,1.6-1.2,1.7-2.1c0.1-1.2-0.8-2.2-1.3-3.2
								c-0.7-1.1-1.3-2.2-2-3.3c-0.4-0.7,0.7-1.4,1.1-0.6c0.8,1.3,1.6,2.6,2.4,3.9c0.7,1.2,1.4,2.5,1.1,3.9
								c-0.7,2.7-3.8,3.3-6.1,3.5C1149.3,533,1149.3,531.7,1150.2,531.7L1150.2,531.7z"/>
						</g>
						<g>
							<path class="st35" d="M1139.9,522.6c-3.1-0.4-6.2-0.8-9.3-1.3c-1.6-0.2-3.1-0.4-4.7-0.7c-0.8-0.1-1.6-0.2-2.4-0.3
								c-0.4-0.1-0.8-0.1-1.1-0.2c-0.1,0-1.3-0.2-1.2,0.1c0.3,0.6-0.6,1.1-0.9,0.5c-0.3-0.6-0.1-1.3,0.6-1.5c0.7-0.3,1.5,0,2.2,0.1
								c1.9,0.3,3.7,0.5,5.6,0.8c3.7,0.5,7.5,1,11.2,1.5C1140.5,521.7,1140.6,522.7,1139.9,522.6L1139.9,522.6z"/>
						</g>
						<g>
							<path class="st35" d="M1153.1,521.7c-0.1,0-0.1-0.1-0.2-0.1c0,0,0.1,0,0,0c0,0-0.1,0-0.1,0c-0.1,0-0.1,0-0.2,0
								c-0.1,0,0,0,0,0c0,0-0.1,0-0.1,0c-0.1,0-0.1,0-0.2,0c-0.1,0,0.1,0,0,0c0,0-0.1,0-0.1,0c-0.1,0-0.1,0-0.2,0.1
								c-0.1,0,0.1,0,0,0c-0.1,0-0.1,0-0.2,0.1c-0.1,0-0.2,0.1-0.3,0.1c0,0-0.1,0-0.1,0c0,0-0.1,0-0.1,0c-0.1,0,0.1,0,0,0
								c0,0-0.1,0-0.1,0.1c-0.1,0,0,0,0,0c0,0,0,0,0,0c-0.1,0.1,0-0.1,0,0c0,0,0,0.1,0,0.1c0,0,0-0.1,0,0c0,0,0,0.1,0,0.1
								c0,0.3-0.4,0.4-0.6,0.3c-0.3-0.1-0.4-0.3-0.3-0.6c0.1-0.3,0.3-0.6,0.6-0.7c0.2-0.1,0.5-0.2,0.8-0.3c0.1,0,0.1,0,0,0
								c0.1,0,0.1-0.1,0.2-0.1c0.1,0,0.1,0,0.2-0.1c0.2,0,0.4-0.1,0.5-0.1c0.4,0,0.7,0.1,1.1,0.3c0.2,0.1,0.3,0.4,0.2,0.7
								C1153.6,521.8,1153.3,521.9,1153.1,521.7L1153.1,521.7z"/>
						</g>
					</g>
					<g>
						<path class="st23" d="M1126,523.2c-0.1-1.8-2.7-5.3-5.7-5.5c-4.4-0.3-4.5,11.1,0.4,13.8C1125.7,534.2,1126.1,526.6,1126,523.2
							z"/>
						<g>
							<path class="st24" d="M1121.8,520.5c1,2.6,1.5,5.5,1.5,8.3c0,0.8-1.3,0.8-1.3,0c0.1-2.7-0.4-5.4-1.4-8
								c-0.1-0.3,0.1-0.7,0.4-0.8C1121.4,519.9,1121.7,520.2,1121.8,520.5L1121.8,520.5z"/>
						</g>
						<g>
							<path class="st24" d="M1121.8,525.6c-0.1-0.3-0.3-0.6-0.5-0.8c0-0.1-0.1-0.1-0.1-0.2c0-0.1,0.1,0.1,0,0c0,0-0.1-0.1-0.1-0.1
								c-0.1-0.1-0.2-0.2-0.3-0.4c-0.1-0.1-0.2-0.2-0.3-0.3c0,0-0.1-0.1-0.2-0.1c0.1,0.1,0.1,0.1,0,0c0,0,0,0,0,0c0,0-0.1,0-0.1-0.1
								c-0.3-0.2-0.5-0.3-0.8-0.5c-0.3-0.1-0.4-0.6-0.2-0.9c0.2-0.3,0.6-0.4,0.9-0.2c1.3,0.6,2.4,1.7,2.9,3c0.1,0.3,0.1,0.7-0.2,0.9
								C1122.4,526,1121.9,526,1121.8,525.6L1121.8,525.6z"/>
						</g>
					</g>
				</g>
			</g>
			<g>
				<path class="st9" d="M1129.3,434.3c-5.5,0.3-9.7,5-9.4,10.5s5,9.7,10.5,9.4c5.3-0.3,9.4-4.7,9.4-9.9
					C1139.7,438.7,1135,434.2,1129.3,434.3z"/>
				<path class="st9" d="M1101.3,471.1c-0.7,0-1.4-0.3-1.9-0.8c-14.4-13.4-15.2-35.9-1.8-50.3c0.6-0.6,1.2-1.2,1.8-1.8
					c1.1-1.1,2.8-1.1,3.9,0c1,0.9,1.1,2.4,0.2,3.4c-0.1,0.1-0.1,0.2-0.2,0.2c-12.4,11.5-13.1,30.9-1.6,43.3c0.5,0.5,1,1.1,1.6,1.6
					c1,0.9,1.1,2.4,0.2,3.4c-0.1,0.1-0.1,0.2-0.2,0.2C1102.7,470.9,1102,471.1,1101.3,471.1z"/>
				<path class="st9" d="M1157.4,471.1c-0.7,0-1.4-0.3-1.9-0.8c-1-0.9-1.1-2.4-0.3-3.4c0.1-0.1,0.2-0.2,0.3-0.3
					c12.4-11.5,13.1-30.9,1.6-43.3c-0.5-0.5-1-1.1-1.6-1.6c-1-0.9-1.1-2.4-0.3-3.4c0.1-0.1,0.2-0.2,0.3-0.3c1.1-1.1,2.8-1.1,3.8,0
					c14.4,13.4,15.2,35.9,1.8,50.3c-0.6,0.6-1.2,1.2-1.8,1.8C1158.8,470.9,1158.1,471.1,1157.4,471.1z"/>
				<path class="st9" d="M1112.9,460.2c-0.7,0-1.4-0.3-1.9-0.8c-8.4-7.7-8.9-20.6-1.3-29c0.4-0.4,0.8-0.9,1.3-1.3
					c1.1-1.1,2.8-1.1,3.8,0c1,0.9,1.1,2.4,0.2,3.4c-0.1,0.1-0.1,0.2-0.2,0.2c-6.4,5.9-6.7,15.9-0.8,22.2c0.3,0.3,0.5,0.5,0.8,0.8
					c1,0.9,1.1,2.4,0.2,3.4c-0.1,0.1-0.1,0.2-0.2,0.2C1114.3,460,1113.6,460.2,1112.9,460.2z"/>
				<path class="st9" d="M1145.7,460.2c-0.7,0-1.4-0.3-1.9-0.8c-1-0.9-1.1-2.4-0.2-3.4c0.1-0.1,0.1-0.2,0.2-0.2
					c6.4-5.9,6.7-15.8,0.8-22.2c-0.3-0.3-0.6-0.6-0.8-0.8c-1-0.9-1.1-2.4-0.2-3.4c0.1-0.1,0.1-0.2,0.2-0.2c1.1-1.1,2.8-1.1,3.9,0
					c8.4,7.7,8.9,20.6,1.3,29c-0.4,0.4-0.8,0.9-1.3,1.3C1147.1,460,1146.5,460.2,1145.7,460.2z"/>
			</g>
		</g>
	</g>
	<path class="st26" d="M1083.8,642.9c3.6,2.8,12.9,42,14.2,58c0,0-10.7,4.3-17.1,4.2c-6.4-0.1-21.4-54.1-21.4-54.1L1083.8,642.9z"/>
	<g>
		<g>
			<path class="st36" d="M1087.9,716.1L1087.9,716.1c1-0.4,2,0,2.3,0.8l2.5,6.4c0.3,0.9-0.1,1.9-1,2.3l-0.1,0
				c-0.9,0.4-1.9,0-2.2-0.9l-2.5-6.4C1086.6,717.6,1087,716.5,1087.9,716.1z"/>
		</g>
		<g>
			<path class="st36" d="M1094.6,712.1L1094.6,712.1c1-0.4,2.1,0,2.5,1l2.5,6.4c0.4,1-0.1,2.2-1.1,2.6l0,0c-1,0.4-2.1,0-2.5-1
				l-2.5-6.4C1093.1,713.8,1093.6,712.6,1094.6,712.1z"/>
		</g>
		<g>
			<path class="st36" d="M1098,710.6L1098,710.6c1-0.4,2.1,0,2.5,1l2.5,6.4c0.4,1-0.1,2.2-1.1,2.6l0,0c-1,0.4-2.1,0-2.5-1l-2.5-6.4
				C1096.5,712.3,1097,711.1,1098,710.6z"/>
		</g>
		<g>
			<path class="st36" d="M1091.5,714.9L1091.5,714.9c1-0.4,2.1,0,2.5,1l2.5,6.4c0.4,1-0.1,2.2-1.1,2.6l0,0c-1,0.4-2.1,0-2.5-1
				l-2.5-6.4C1090,716.6,1090.5,715.4,1091.5,714.9z"/>
		</g>
	</g>
	<path class="st36" d="M1095.7,701.8c0.1,0,4.5,7.1,5.2,11.5s-11.5,6.9-13.2,5.7c-1.7-1.2-6.1-13.8-6.1-13.8L1095.7,701.8z"/>
	<path class="st36" d="M1098.9,707.7c0.1,0.2,4.9,2,6.2,4.3s-6.2,0.5-6.2,0.5V707.7z"/>
	<path class="st36" d="M1089.3,724.4c0.2,0.4,3.5,8.5,5.4,7.6c1.9-0.9-1.7-8-1.7-8s4.5,8,5.9,7.3c1.5-0.7-2.6-9.6-2.6-9.6
		s3.7,9.7,6.2,8.8c2.5-0.9-2.7-9.7-2.7-9.7s3.4,8.2,5.4,6.7s-3-11.6-3-11.6L1089.3,724.4z"/>
	<path class="st37" d="M1084.5,643.9c0,0,7.2,19.8,10.9,39.9"/>
</g>
<g>
	<g>
		<ellipse class="st0" cx="878.2" cy="1025.5" rx="90.1" ry="8.4"/>
		<g>
			<path class="st9" d="M862.8,360.2c-5.9,0.3-10.5,5.4-10.2,11.4c0.3,5.9,5.4,10.5,11.4,10.2c5.7-0.3,10.2-5,10.2-10.7
				C874,364.9,868.9,360.1,862.8,360.2z"/>
			<path class="st9" d="M832.5,400c-0.8,0-1.5-0.3-2.1-0.8c-15.6-14.5-16.4-38.8-2-54.4c0.6-0.7,1.3-1.3,2-2c1.2-1.1,3-1.1,4.2,0
				c1.1,1,1.2,2.6,0.2,3.7c-0.1,0.1-0.2,0.2-0.2,0.2c-13.4,12.5-14.1,33.4-1.7,46.8c0.5,0.6,1.1,1.1,1.7,1.7c1.1,1,1.2,2.6,0.2,3.7
				c-0.1,0.1-0.2,0.2-0.2,0.2C834,399.7,833.2,400,832.5,400z"/>
			<path class="st9" d="M893.2,400c-0.8,0-1.5-0.3-2.1-0.8c-1.1-0.9-1.2-2.6-0.3-3.7c0.1-0.1,0.2-0.2,0.3-0.3
				c13.4-12.5,14.1-33.4,1.7-46.8c-0.5-0.6-1.1-1.1-1.7-1.7c-1.1-0.9-1.2-2.6-0.3-3.7c0.1-0.1,0.2-0.2,0.3-0.3c1.1-1.1,3-1.1,4.2,0
				c15.6,14.5,16.4,38.8,2,54.4c-0.6,0.7-1.3,1.3-2,2C894.7,399.7,893.9,400,893.2,400z"/>
			<path class="st9" d="M845.1,388.2c-0.8,0-1.5-0.3-2.1-0.8c-9-8.3-9.7-22.3-1.4-31.4c0.4-0.5,0.9-1,1.4-1.4c1.1-1.1,3-1.1,4.2,0
				c1.1,1,1.2,2.6,0.2,3.7c-0.1,0.1-0.2,0.2-0.2,0.2c-6.9,6.4-7.3,17.2-0.8,24.1c0.3,0.3,0.6,0.6,0.8,0.8c1.1,1,1.2,2.6,0.2,3.7
				c-0.1,0.1-0.2,0.2-0.2,0.2C846.6,387.9,845.8,388.2,845.1,388.2z"/>
			<path class="st9" d="M880.5,388.2c-0.8,0-1.5-0.3-2.1-0.8c-1.1-1-1.2-2.6-0.2-3.7c0.1-0.1,0.2-0.2,0.2-0.2
				c6.9-6.4,7.3-17.1,0.9-24c-0.3-0.3-0.6-0.6-0.9-0.9c-1.1-1-1.2-2.6-0.2-3.7c0.1-0.1,0.2-0.2,0.2-0.2c1.2-1.1,3-1.1,4.2,0
				c9,8.3,9.7,22.3,1.4,31.4c-0.4,0.5-0.9,1-1.4,1.4C882.1,387.9,881.3,388.2,880.5,388.2z"/>
		</g>
		<g>
			<path class="st38" d="M857.9,572c7.6-1.9,15.3-3.8,22.9-5.8c6.5-1.6,13.3-3.4,18.8-7.3c3.7-2.6,6.8-6.2,11-8.1
				c-0.7,6-2.9,11.7-6.4,16.6c9.5-3.5,18.9-7,28.4-10.4c2.5-0.9,5-1.9,6.9-3.7c1.8-1.7,2.9-3.9,3.8-6.1c3.2-7.4,5.2-15.6,4.3-23.6
				c-0.9-8.1-5-16-11.9-20.3c-2.6-1.6-5.6-2.7-7.9-4.9c-8.5-8.1-0.9-24.2-8.5-33.1c-3.1-3.7-8.3-5.3-11.2-9.3
				c-1.7-2.4-2.4-5.4-3-8.3c-1.6-6.8-3.9-13.7-8.4-18.9c-4.6-5.3-12-8.6-18.7-6.7c-5.8-2.9-12.8-1.1-18.8,1.2
				c-7.2,2.8-14.1,6.3-20.5,10.4c-4.7,3-9.3,6.5-12,11.4c-2.7,4.9-3,11.4,0.5,15.7c2.2,2.6,5.6,4.3,6.7,7.6
				c1.3,3.7-1.1,7.6-3.7,10.6c-2.6,3-5.6,6-5.9,9.9c-0.5,6.3,6.5,11.8,4.9,17.9c-1.2,5-7.2,6.9-11,10.5c-3.2,3.1-4.9,7.8-4.2,12.2
				c0.5,3.6,2.5,7,2.5,10.7c0,5.9-5.8,11.1-11.7,10.4c5.9,5.7,15.4,7.2,22.7,3.7c0.6,3.4,0,7-1.9,10c12,1.5,24.6-1.1,35-7.3
				C862.1,561.9,861,567.7,857.9,572z"/>
			<g id="pants_1_">
				<path class="st14" d="M981.8,830.6H786.6l41.3-197.1l-38.3-10.5c0,0,24-82.8,26.7-85.9c1.8-2.1,8-4.8,18.3-10.8
					c0.6-0.4,1.2-0.7,1.9-1.1c3.2-1.9,6.1-3.6,8.3-5c0.7-0.4,1.3-0.8,1.8-1.2c3.6-2.5,5.9-5.9,7.3-8.9c0.5-1.1,0.9-2.1,1.2-3
					c0.1-0.2,0.2-0.5,0.2-0.7c0-0.1,0.1-0.2,0.1-0.3c0-0.1,0.1-0.3,0.1-0.4c0-0.1,0.1-0.2,0.1-0.3c0,0,0-0.1,0-0.1c0,0,0,0,0,0
					c0.2-0.7,0.3-1.2,0.3-1.4l0-0.2c0,0,0,0,0-0.1c0,0,0,0,0,0l3.7-0.9l7.8-1.8l0.3-0.1c14.2-0.1,23.5,0.6,29.6,1.6
					c0.1,0,0.2,0,0.3,0c0.3,0,0.5,0.1,0.8,0.1c5.3,0.9,7.9,2,9.2,2.8c0.7,0.4,1,0.7,1.2,0.9l0,0c0,0,0,0,0,0c0,0,0,0.1,0.1,0.1
					c0,0,0,0,0,0c0,0,0,0,0,0c0,0,0,0,0,0c0.1,0.1,0.1,0.2,0.2,0.3c0.7,1,1.1,1.8,1.3,2c0,0,0,0,0,0c0,0,0,0,0,0l25.8,10.6l7.7,52.3
					l9,60.9l-6,22.7l-0.4,1.6l1.8,8.5l33.7,163.8C982.2,829.7,982.1,830.2,981.8,830.6z"/>
				<g>
					<polygon class="st6" points="837,1027.1 870.5,1027.2 860.7,1013.7 					"/>
					<rect x="846.7" y="966.3" class="st39" width="20.2" height="31"/>
					<path class="st14" d="M832.8,1019.8c-1.1,4.9,2.3,10.8,11.3,4.7c13.9-9.4,18.1,4.1,27.6,2.6c5.1-0.8-1.1-12-1.1-23.9
						c0-13-6.7-19.5-16.2-18.4c-8.3,0.9-10.7,11-12.4,16.2C840.2,1006.1,833.7,1016,832.8,1019.8z"/>
					<polygon class="st40" points="866.9,966.3 866.9,982.9 846.7,980.6 846.7,966.3 					"/>
				</g>
				<g>
					<polygon class="st6" points="921.8,1027.1 888.2,1027.2 898,1013.7 					"/>
					<rect x="891.9" y="966.3" class="st39" width="20.2" height="31"/>
					<path class="st14" d="M921.8,1027.1C921.8,1027.1,921.8,1027.1,921.8,1027.1L921.8,1027.1c-0.3,0-0.6,0-0.9,0h0
						c-1.7-0.1-3.7-0.9-6.2-2.6c-13.1-8.9-17.6,2.6-26,2.7h0c0,0-0.1,0-0.1,0h0c-0.1,0-0.2,0-0.3,0c-0.4,0-0.7,0-1.1-0.1
						c-2.6-0.4-2.6-3.5-1.9-8c0-0.2,0.1-0.4,0.1-0.7c0.8-4.3,2.2-9.9,2.9-15.6c0.6-5.2,1.8-9.3,3.7-12.3c2.8-4.5,7-6.5,12.6-5.9
						c3.4,0.4,5.8,2.3,7.6,4.8c2.5,3.6,3.8,8.3,4.8,11.3c1.2,3.7,5,10,7.3,14.6c0.1,0.3,0.3,0.6,0.4,0.9c0.7,1.4,1.2,2.6,1.4,3.4
						C926.7,1023.1,925.4,1026.8,921.8,1027.1z"/>
					<path class="st40" d="M891.9,966.3h20.2V980c-6.3,0.4-15.2,1.1-20.2,1.5V966.3z"/>
				</g>
				<g>
					<path class="st41" d="M935,838.5c-1.7,39.3-13.2,128.8-14.8,130.4c-1.6,1.5-3.5,2.6-5.5,3.2v2.9c0,1.7-1.4,3-3,3h-19.5
						c-1.7,0-3-1.4-3-3V971c-8.9-3.2-5.5-109.8-6.3-152.7c-0.2-10.9-1.2-28.5-2.3-44c-0.4-5.8-0.9-11.3-1.3-16.1
						c-0.1-1.5-2.3-1.5-2.4,0c-0.3,5.1-0.6,10.2-0.8,15.4c-0.9,17.5-1.5,34.8-1.8,49.5c-1,54.2,0.8,141.6,0.2,144.6
						c-0.4,1.7-3.9,3.5-5.3,4.4v3c0,1.6-1.3,2.9-2.9,2.9h-18.7c-1.6,0-2.9-1.3-2.9-2.9v-1.8c-2.6-0.7-4.2-1.6-5.2-2.3
						c-0.6-0.4-1.1-1.1-1.3-1.8c-1.5-4.8-11-88.5-12.1-122.8c-0.4-12.4-0.7-22.7-0.9-28.4c-0.3-10,1.6-33.5,3.6-55.4
						c0.2-1.9,0.4-3.8,0.5-5.7c2.1-22.1,4.2-41.3,4.2-41.3h97.3c0,0-0.4,4.3,4.2,39.3c0.5,3.8,0.8,8.6,1.1,14.2
						c0.1,2.3,0.2,4.7,0.2,7.2C936.5,793.9,935.9,816.5,935,838.5z"/>
					<path class="st42" d="M869.1,972.1v3c0,1.6-1.3,2.9-2.9,2.9h-18.7c-1.6,0-2.9-1.3-2.9-2.9v-1.8
						C844.6,973.3,866.6,973.1,869.1,972.1z"/>
					<path class="st42" d="M914.7,972v2.9c0,1.7-1.4,3-3,3h-19.5c-1.7,0-3-1.4-3-3V971C889,971,894.7,973.6,914.7,972z"/>
				</g>
			</g>
			<path class="st43" d="M898.4,506.8l-40.8,14.8l-2.5-14.5c0.1-0.2,0.2-0.5,0.2-0.7c0-0.1,0.1-0.2,0.1-0.3c0-0.1,0.1-0.3,0.1-0.4
				c0-0.1,0.1-0.2,0.1-0.3c0,0,0-0.1,0-0.1c0,0,0,0,0,0c0.2-0.7,0.3-1.2,0.3-1.4l0-0.2c0,0,0,0,0-0.1c0,0,0,0,0,0l3.7-0.9l7.8-1.8
				l0.3-0.1c14.2-0.1,23.5,0.6,29.6,1.6C898.1,504.8,898.4,506.8,898.4,506.8z"/>
			<path class="st39" d="M864.1,547L864.1,547c-5.2-7.3-7.6-16.2-6.6-25.1l0.4-3.9l1.1-2.8c0.2-0.5,0.3-0.9,0.4-1.4
				c0.1-0.6,0-1.3-0.1-1.9l-1.3-6l-1.2-5.5l30.6-17.6l2.5,8l2.4,7.8l3.9,7.5l5.1,25C903.6,542.7,872.9,555.2,864.1,547z"/>
			<path class="st40" d="M889.8,490.6c0,0-12.1,32.4-30.4,23.1c0.1-0.6,0-1.3-0.1-1.9l-1.3-6l-1.2-5.5l30.6-17.6L889.8,490.6z"/>
			<path class="st40" d="M858.2,519.6c1.7,10.4,9.7,16.9,14.1,19.7c0,0,0,0,0,0c0.1,0.1,0.2,0.1,0.3,0.2c0,0,0,0,0,0
				c0.1,0.1,0.2,0.1,0.3,0.2c0,0,0,0,0,0c0.1,0.1,0.2,0.1,0.2,0.1c0,0,0,0,0,0c0.1,0,0.1,0.1,0.2,0.1c0,0,0,0,0,0
				c0.1,0,0.1,0.1,0.2,0.1c0,0,0,0,0,0c0.1,0,0.1,0.1,0.2,0.1c0,0,0,0,0,0c0.1,0,0.1,0.1,0.2,0.1c0,0,0,0,0,0c0.1,0,0.1,0.1,0.2,0.1
				c0,0,0,0,0,0c0,0,0.1,0.1,0.1,0.1c0,0,0,0,0,0c0,0,0.1,0,0.1,0.1c0,0,0,0,0,0c0,0,0.1,0,0.1,0.1c0,0,0,0,0,0c0,0,0.1,0,0.1,0.1
				c0,0,0,0,0,0c0,0,0.1,0,0.1,0c0,0,0,0,0,0c0,0,0.1,0,0.1,0c0,0,0,0,0,0c0,0,0,0,0.1,0c0,0,0,0,0,0c0,0,0,0,0,0c0,0,0,0,0,0
				c0,0,0,0,0,0s0.3-0.3,0.9-0.7l0,0c1.1-0.9,3.1-2.6,5.4-4.9c0,0-3.3,3.1-5.8,4.1C861.3,532.6,858.3,520.1,858.2,519.6
				C858.2,519.6,858.2,519.6,858.2,519.6z"/>
			<g id="body_1_">
				<path class="st41" d="M944.6,747.3l-7.8,1.6c-7,1.5-14,2.6-21,3.4c-2.3,0.3-4.6,0.5-6.9,0.7c-16.2,1.4-32.4,1.1-48.5-0.8
					c-9.3-1.1-18.6-2.8-27.7-5l21-222.4l0.3-3.6l4.4-4.1l-0.3,0.7c0,0,0,0,0,0c0.4,3.7,1.5,6.9,3.1,9.7c5,8.9,14.1,13.3,14.1,13.3
					s23.7-18.3,21-35.2l8.1,2.1l1.7,0.4l1.9,11.9l4.8,29.6L944.6,747.3z"/>
				<path class="st44" d="M904.2,507.9c-7,29.5-28.2,40.1-28.2,40.1c-9.9-2.7-20.7-13.3-24.2-21.8l2.1-4.8l4.4-4.1l-0.3,0.7
					c0,0,0,0,0,0c1.5,15.5,17.2,23,17.2,23s23.7-18.3,21-35.2L904.2,507.9z"/>
				<path class="st14" d="M981.8,830.6c-0.2,0.2-0.4,0.4-0.7,0.5c-20.3,7.9-49.3,7.6-55.8,7.4c-0.8,0-1.4-0.6-1.5-1.4l-0.6-6.5
					l-15.4-161.7l-1.2-12.1l-0.5-5.6l0.3-6.9l1-19.8l3.7-75.7l32.9,22.8l1,0.7l6.3,43.7l2.1,14.8l-0.5,1.7l-6,22.7l-0.4,1.6l1.7,8.5
					l33.7,163.8C982.2,829.7,982.1,830.2,981.8,830.6z"/>
				<path class="st44" d="M860.7,603.2c-8.5,26.9-13.2,141.2-15,146.9l2.9-90l0.7-21.3l0.2-7.1c0-0.1,0.7-3.3,1.7-8.3
					c3-15.1,8.9-47,9.2-65.6c0.4-24-2.4-34.6-3.4-39.3l1.3-1.3l-0.3,0.7c0,0,0,0,0,0c0.4,3.7,1.5,6.9,3.1,9.7
					C864.1,549.4,867.1,582.8,860.7,603.2z"/>
				<polygon class="st44" points="849,643.7 848.5,660.1 896.1,640.2 				"/>
				<path class="st44" d="M906.6,656.8l-0.5-5.6l0,0l0,0c0,0-1.8-90.3-6.4-133.8c-0.9-0.3-1.4-0.5-1.4-0.5s-0.7,58.6,2,120.5
					c2,45.5,7.2,94,8.5,115.6c2.3-0.2,4.6-0.4,6.9-0.7l-8-83.5L906.6,656.8z"/>
				<path class="st14" d="M849.4,631.7l-0.2,7.1l-0.7,21.3l-3.8,117.1l0.9,60.1c0,0.6-0.5,1.1-1,1.1l-5.7,0
					c-17.7,0.1-53-4.1-52.3-7.9c4-35,9.7-69.9,17-104.3c3.8-17.7,8-35.2,12.7-52.7c3.2-11.9,6.5-23.7,10.1-35.5
					c1.4-4.7,2.9-9.3,4.4-14l3.9-12.2L849.4,631.7z"/>
				<g>
					<polygon class="st43" points="831.3,566.9 823.9,607.2 834.6,607.2 					"/>
					<path class="st43" d="M914.2,568.8c0,0,0,43.4,2.5,48s23,5.8,25.3,2.8c2.3-3,3.1-47.2,3.1-47.2s-4.8,7.9-10,6.2
						C929.9,576.9,926,569.7,914.2,568.8z"/>
					<g>
						<path class="st14" d="M937.5,588.2c-2.9,0-6.8-1-10.6-5.1c-2.2-2.3-5.5-5.1-9.1-5.4c-2.1-0.1-3.3,0.7-3.3,0.7l-0.6-0.9
							c0.1,0,1.4-1,3.9-0.9c3.1,0.2,6.5,2.1,9.9,5.7c3.4,3.6,7.2,5.2,11.2,4.7c3-0.4,5.1-1.8,5.1-1.8l0.6,0.9
							c-0.1,0.1-2.3,1.6-5.5,2C938.5,588.2,938,588.2,937.5,588.2z"/>
					</g>
					<polygon class="st43" points="834.9,543.5 830.6,544.3 840,574.6 					"/>
					<polygon class="st43" points="842.9,522.8 831.6,535.4 845.9,537.9 834.6,534.9 					"/>
					<polygon class="st43" points="834.6,541.5 843.9,537.4 845.9,537.9 					"/>
					<polygon class="st43" points="912.5,511.7 921,524.7 909.5,530.5 926.8,532 917.9,568.3 922.9,533.2 908.8,530.3 918.9,524.3 
											"/>
					<path class="st43" d="M938.6,578.4c2.5-5.3-6.9-22.5-6.9-22.5c1.9,15.7,1.2,25,1.2,25S937.9,579.8,938.6,578.4z"/>
					<path class="st43" d="M828.4,645.2c-1.4,0.1-2.7-0.4-3.8-1.3c-2.9,9.8-5.7,19.7-8.4,29.7l32.2-13.5l0.5-16.4L828.4,645.2z"/>
				</g>
				<path class="st14" d="M922.9,533.2l-13.3,93.3l-3.5,24.7c0,0-0.2-9.1-0.6-23c-1-35.7-3.4-102.9-7.9-125.8c0.3,0,0.5,0.1,0.8,0.1
					c5.3,0.9,7.9,2,9.2,2.8c0.7,0.4,1,0.7,1.2,0.9l0,0c0,0,0,0,0,0c0,0,0,0.1,0.1,0.1c0,0,0,0,0,0c0,0,0,0,0,0
					c0.1,0.1,0.1,0.2,0.2,0.3c0.4,0.6,0.8,1.3,1.3,2c0,0,0,0,0,0c0,0,0,0,0,0l8.5,15.5l-10.2,6L922.9,533.2z"/>
				<path class="st14" d="M857,506.3c-0.5-0.4-0.9-0.8-1.4-1.3c0,0.1-0.1,0.2-0.1,0.4c0,0.1,0,0.2-0.1,0.3c0,0.1-0.1,0.2-0.1,0.4
					c0,0.1-0.1,0.2-0.1,0.3c-0.3,1.1-0.8,2.4-1.5,3.7c-1.4,3-3.7,6.4-7.3,8.9c-0.5,0.4-1.1,0.7-1.8,1.2l-10.2,14.8l11.2,3l-11.2,3.6
					l14.8,90.2c0,0,0,0,0,0c0.1-0.6,10.5-49.1,10.9-73.9c0.4-24.9-2.6-35.4-3.5-39.8C856.2,515.2,856.7,509.7,857,506.3z"/>
				<path class="st43" d="M953.5,630.9l-5,18.8l-1.5,5.6l-0.4,1.6L909,682l-2.4-25.2l-0.5-5.6c0,0-0.2-9.1-0.6-23l4.1-1.7l25.1-10.7
					l16.6,0.3L953.5,630.9z"/>
			</g>
			<g id="Stethoscope">
				<ellipse class="st45" cx="845" cy="583.8" rx="5.9" ry="7.2"/>
				<path class="st45" d="M920.5,539.5c0-5.4-4-9.9-9.2-10.5c0.9-11.4-1.5-19.8-7.2-25.1c-3-2.8-7-4.6-11.7-5.3l1.9,3.7
					c3,0.8,5.6,2.1,7.6,4c5,4.6,7.1,12.3,6.1,22.8c-5,0.9-8.8,5.2-8.8,10.5V559h0.7c-0.1,1.2-0.4,4.8-0.1,9.1
					c0.5,7,2.3,12.2,5.3,15.4c0.7,0.8,1.5,1.4,2.4,1.9c-0.8,0-1.6-0.2-2.5-0.4l-0.5,1.7c1.1,0.3,2.2,0.5,3.2,0.5c1,0,2-0.2,2.9-0.5
					c1,0.2,2.1,0.4,3.2,0.4c0.5,0,1,0,1.5-0.1l-0.1-1.7c-0.7,0.1-1.3,0.1-2,0c0.1,0,0.1-0.1,0.2-0.1c7.1-5.8,6.8-22.5,6.6-26.1h0.5
					V539.5z M912.3,583.8c-0.5,0.4-1.1,0.8-1.7,1c-1.6-0.5-3-1.3-4.2-2.5c-6.2-6.5-4.9-21.3-4.7-23.3h0.8v-19.5
					c0-4.1,3.3-7.4,7.4-7.4c4.1,0,7.4,3.3,7.4,7.4V559h1C918.4,562.3,918.7,578.6,912.3,583.8z"/>
				<path class="st45" d="M855.1,504.4c-1.2,0.8-2.4,1.9-3.5,3.1c-4,4.6-6.7,11.9-8,22.3c-1.5,11.3-1.5,26.8-0.2,47.2l3.2-0.2
					c-2.5-37.8-0.2-58.5,7.4-67.1c1.1-1.2,2.2-2.2,3.5-2.9C856.7,506,855.9,505.2,855.1,504.4z"/>
				<path class="st45" d="M898.7,586.6l3.8,0.9c1.2,0.3,2.4-0.4,2.7-1.6l0,0c0.3-1.2-0.4-2.4-1.6-2.7l-3.8-0.9
					c-1.2-0.3-2.4,0.4-2.7,1.6l0,0C896.8,585.1,897.5,586.3,898.7,586.6z"/>
				<path class="st45" d="M921.2,587.1l-3.8,0.9c-1.2,0.3-2.4-0.4-2.7-1.6l0,0c-0.3-1.2,0.4-2.4,1.6-2.7l3.8-0.9
					c1.2-0.3,2.4,0.4,2.7,1.6l0,0C923.1,585.7,922.4,586.9,921.2,587.1z"/>
			</g>
			<g id="document_and_hand">
				<path class="st14" d="M789.6,622.9c0,0-1.4,2.7-2.3,6.1c-0.8,3.5-3.7,1.5-1.7,10.8s10.7,29.4,18.7,29.6
					c8,0.2,16.9-7.8,18.6-27.8C824.6,621.8,789.6,622.9,789.6,622.9z"/>
				<path class="st10" d="M896.1,640.2l-67.7,4.9c-1.5,0.1-3-0.5-4.1-1.6l-51.5-54.3c0,0,0,0,0,0l-2.6-2.8c-0.5-0.5-0.2-1.4,0.6-1.5
					l69.8-6.3c1.4-0.1,2.8,0.4,3.8,1.5l40.8,47.2L896.1,640.2z"/>
				<path class="st46" d="M822.3,586.2c0,0.5-0.7,0.9-1.5,0.9s-1.5-0.4-1.5-0.9s0.7-0.9,1.5-0.9S822.3,585.7,822.3,586.2z"/>
				<ellipse class="st46" cx="797" cy="587.9" rx="1.5" ry="0.9"/>
				<path class="st47" d="M896.1,640.2l-67.7,4.9c-1.5,0.1-3-0.5-4.1-1.6l-51.5-54.3c0.8,0.7,68.6,40.6,112.3,38.2L896.1,640.2z"/>
				<path class="st43" d="M813.6,646.7c0,0,0,0.1,0,0.1c0,0,0,0,0,0c-0.7,3-1.5,6.7-1.7,11.3c-0.5,10-3.9,11.3-6.5,10.5
					c-3.8-1.2-5-4.7-6.2-11.1c-0.5-2.6-0.6-6.1-0.5-9.3c0-0.7,0-1.4,0.1-2c0-1,0.1-1.9,0.2-2.7c0.2-2.4,0.5-4.1,0.5-4.1
					s14.4-5.1,15.2-1.1C815.1,640.6,814.4,643.2,813.6,646.7z"/>
				<path class="st41" d="M813.6,646.7c0,0,0,0.1,0,0.1c-2.3,1.9-5,2.4-7.3,2.1c-2.9-0.4-6-2.1-7.3-5.5c0.2-2.4,0.5-4.1,0.5-4.1
					s14.4-5.1,15.2-1.1C815.1,640.6,814.4,643.2,813.6,646.7z"/>
				<path class="st45" d="M799.3,638.9c0,0,1,7.3,7,8c7.6,0.9,8.9-6.6,8.4-9.1C814.2,635.3,799.3,638.9,799.3,638.9z"/>
				<path class="st39" d="M820.6,628.9c0,0,3.7,2.6-6.1,6.7c0,0,1.9,6.4-3.4,7.9c-5.3,1.5-6.1-0.8-7.2-1.2c-1.1-0.4-1.7,0-3.4-1.4
					c-1.7-1.5-1-2.1-1.4-2.5c-0.4-0.4-2.1-1.8-2.5-2.3c-0.4-0.5,0.4-2.5,0-2.8c-0.4-0.4-1.9-1.5-2.3-2.3c-0.5-0.8,0.4-2.8,0.2-3.6
					c-0.1-0.8-3.1-2.4-1-5.7c0,0-1.3-3.2,2.4-4.4c3.7-1.2,11.1-2.5,12,0c0.8,2.2-2.8,3.4-5.4,4.1c-6.3,1.7-0.7,1.4-0.7,1.4
					s19.3-6,17.8,1.2c0,0,3-0.6,3.5,1.6C823.5,627.6,820.6,628.9,820.6,628.9z"/>
				<path class="st40" d="M811.2,643.5c-5.3,1.5-6.1-0.8-7.2-1.2c0,0,11-0.6,10.5-6.7C814.5,635.6,816.4,642,811.2,643.5z"/>
			</g>
			<g id="arm">
				<path class="st48" d="M937.8,662.1c-0.4,5.3-2,9.8-5,11.7c-8.5,5.5-19-5.6-23-18.3c-3.1-9.7-2.5-20.3,5.5-25.4
					c1.8-1.2,3.6-1.8,5.2-1.9c0.3,0,0.6,0,0.9,0c0.1,0,0.3,0,0.4,0c0.1,0,0.1,0,0.2,0c0.1,0,0.2,0,0.2,0c0.1,0,0.1,0,0.2,0
					c0.1,0,0.2,0,0.3,0c0.2,0,0.4,0.1,0.6,0.1c0,0,0,0,0,0c0.1,0,0.2,0.1,0.3,0.1c0.1,0,0.2,0.1,0.3,0.1c0,0,0,0,0,0
					c0.1,0,0.2,0.1,0.3,0.1c0.1,0,0.2,0.1,0.3,0.1c0.1,0,0.2,0.1,0.3,0.1c0.1,0,0.2,0.1,0.3,0.1c0.1,0,0.2,0.1,0.3,0.1
					c0.2,0.1,0.3,0.2,0.5,0.3c0.1,0,0.1,0.1,0.2,0.1c0.3,0.2,0.7,0.5,1,0.7c0.1,0.1,0.2,0.1,0.3,0.2c0.1,0.1,0.2,0.2,0.3,0.3
					c0.1,0.1,0.2,0.1,0.2,0.2c0.1,0.1,0.2,0.2,0.3,0.3c0.1,0.1,0.2,0.2,0.2,0.2c0.1,0.1,0.2,0.2,0.3,0.3c0.1,0.1,0.2,0.2,0.3,0.3v0
					c0.1,0.1,0.2,0.2,0.3,0.3c0.1,0.1,0.2,0.2,0.3,0.3c0.2,0.3,0.4,0.5,0.7,0.8c0,0,0,0.1,0.1,0.1c0.1,0.1,0.1,0.2,0.2,0.3
					c0.1,0.1,0.2,0.2,0.2,0.3c0.2,0.2,0.3,0.4,0.5,0.7c0.1,0.1,0.2,0.2,0.2,0.3c0.1,0.1,0.1,0.2,0.2,0.2c0,0.1,0.1,0.2,0.1,0.2
					c0.5,0.8,0.9,1.6,1.4,2.4c0,0,0,0,0,0.1l0,0.1l0,0c0.1,0.3,0.3,0.5,0.4,0.8c0.1,0.2,0.2,0.4,0.3,0.6c0.2,0.5,0.4,0.9,0.6,1.4
					c0,0.1,0.1,0.2,0.1,0.3c0.2,0.5,0.4,1,0.6,1.5c0.1,0.3,0.2,0.5,0.3,0.8c0.1,0.2,0.2,0.5,0.2,0.7c0.1,0.2,0.1,0.4,0.2,0.7
					c0,0.1,0.1,0.3,0.1,0.4c0,0.1,0,0.1,0.1,0.2c0,0.2,0.1,0.3,0.1,0.4c0,0.2,0.1,0.3,0.1,0.5c0.3,1.2,0.6,2.5,0.9,3.7
					c0.5,2.6,0.8,5.3,0.9,7.9C937.9,659.5,937.9,660.8,937.8,662.1z"/>
				<path class="st45" d="M916.1,640.7c2.1,4.8,9,17.6,14.5,16.7c9-1.4,1.6-16.6,1.3-20L916.1,640.7z"/>
				<path class="st39" d="M936.4,638.2l-8.4,2.6l-15.1,4.8c0,0-3.3,3.8-5.9,4.5c-2.6,0.7-19,2.4-18.4-3c0,0-5.8,0.3-5.6-4.2
					c0,0-10.9,0.7-9.7-3.9s12.1,1.2,23.8-5c0,0,0.3-1.4-7-0.7l-3.9-4.6c1.1-0.2,2.3-0.3,3.8-0.3c11.2-0.1,10.7,0,10.7,0l13.2,1.9
					l5-1.8l16.1-1.4L936.4,638.2z"/>
				<path class="st40" d="M936.4,638.2l-8.4,2.6c-1-6.1-9.1-12.3-9.1-12.3l16.1-1.4L936.4,638.2z"/>
				<path class="st14" d="M969.6,627.9l-35.3,44.6c0-0.1,0.3-1.6,0.7-3.9c1.5-10,3.5-36.1-16.1-40.1l13-5.3h0l4.1-1.7
					c1.3-0.5,2.6-1.2,3.7-2c1.1-0.8-1.7-3.3,3-2.6c0,0,0,0,0,0c0,0,0,0,0,0c0,0,0,0,0,0c0,0,0.1,0,0.2,0c0.8,0.1-4.2-1.1-3.5-2.7
					c0.4-0.8,0.6-1.9,0.7-3c0.1-0.6,0.1-1.1,0.1-1.7c0-2.7-0.4-5.6-0.7-7.8l-3.2-82.3c7.8,2.1,30,63.1,37.3,89
					C975.5,615.2,974,622.5,969.6,627.9z"/>
				<path class="st43" d="M960.7,616.8c0,0-2.8,4.6-21,2.6c1.1-0.8-1.7-3.3,3-2.6c0,0,0,0,0,0c0,0,0,0,0,0c0,0,0,0,0,0
					c0,0,0.1,0,0.2,0C944.7,617.1,955.7,618.4,960.7,616.8z"/>
				<path class="st41" d="M930.5,636c0,0,6.9,19.6,0.2,21c-4.2,0.8-9.9-8-9.9-8l-3.1-5c0,0,6.2,13.7,12.9,13.8
					c0.6,0,1.1-0.1,1.5-0.3v0l0,0c0.2-0.1,0.3-0.1,0.5-0.2l3.2-1.7C935.7,648.9,934.4,641.5,930.5,636z"/>
			</g>
			<path class="st39" d="M893.4,468.7c-0.5,1.5-4.4,28-21.1,33.5c-2.4,0.8-5,1.1-8,0.9c-3.6-0.3-8-1.6-13-7.7
				c-6-7.3-10.6-17.2-11.6-38.1c-0.1-2-0.2-3.7-0.2-5.2c-0.1-6.8,1.3-10.4,5.4-15.3c3.7-4.4,8.3-7.4,13-9.2c5.3-2,10.7-2.4,15.1-1.4
				c5.8,1.4,10.2,3.9,13.5,7.1c4.1,4,6.4,8.2,7.6,12.4C896.6,454.8,894.2,464.8,893.4,468.7z"/>
			<path class="st49" d="M852.8,469.4c-0.4-2.6-1.5-4.6-2.6-4.5c-1.1,0.1-1.6,2.4-1.2,5c0.4,2.6,1.5,4.6,2.6,4.5
				C852.7,474.3,853.2,472,852.8,469.4z"/>
			<path class="st49" d="M874.9,467c-0.4-2.6-1.5-4.6-2.6-4.5c-1.1,0.1-1.6,2.4-1.2,5c0.4,2.6,1.5,4.6,2.6,4.5
				C874.7,471.8,875.3,469.6,874.9,467z"/>
			<path class="st49" d="M864.6,481.6c0.1,0,0.2-0.1,0.2-0.1c0.2-0.5,0.2-1-0.1-1.4c-0.1-0.1-0.2-0.1-0.3-0.1
				c-0.6,0-1.3,0.1-1.8-0.1c-0.5-0.1-1-0.5-1.2-1.1c-0.1-0.4,0-0.9,0.2-1.4l0.1-0.2c0.9-3.1,0.1-6.4-0.5-9.1c0-0.1-0.2-0.2-0.3-0.2
				c-0.1,0-0.2,0.2-0.2,0.3c0.6,2.8,1.4,5.9,0.5,8.9l-0.1,0.2c-0.2,0.5-0.3,1.1-0.2,1.7c0.2,0.7,0.8,1.2,1.6,1.4
				c0.6,0.2,1.3,0.1,1.9,0.1c0.1,0.2,0.1,0.5,0,0.8c-0.1,0.1,0,0.3,0.1,0.4C864.5,481.6,864.6,481.6,864.6,481.6z"/>
			<g>
				<path class="st50" d="M872.9,486.2c0,0-1.3,7.9-6.5,8.5c-5.1,0.5-8-5.8-8-5.8s1.9-2.9,3.2-3.4c1.5-0.5,3.5,0.5,3.5,0.5
					s0.9-1.3,2.4-1.8C868.9,483.8,871.7,485.8,872.9,486.2z"/>
				<path class="st14" d="M858.5,488.8l14.4-2.6C872.9,486.2,865.9,497.8,858.5,488.8z"/>
			</g>
			<path class="st49" d="M878.4,457.5c-3.7-2-12-2.3-13.2,3.1c-0.1,0.3,0.2,0.8,0.6,0.6c1.8-0.6,3.1-2,4.9-2.5
				c2.4-0.8,4.9-0.5,7.4-0.2C878.6,458.5,878.8,457.7,878.4,457.5L878.4,457.5z"/>
			<path class="st49" d="M841.6,464.3c2.7-3.3,10.1-6.7,13.4-2.3c0.2,0.3,0.1,0.8-0.3,0.8c-1.9,0.1-3.6-0.6-5.5-0.4
				c-2.5,0.2-4.7,1.5-6.9,2.7C841.7,465.3,841.2,464.7,841.6,464.3L841.6,464.3z"/>
			<path class="st38" d="M842.7,489.1c-3.4-1-5.6-4.3-6.5-7.7c-0.9-3.4-0.8-7-0.9-10.5c-0.3-7.2-1.9-14.5-0.5-21.6
				c2.2-10.9,11.6-19.6,22.3-22.5c10.8-2.9,22.5-0.5,32.2,5c2.5,1.4,5,3.1,6.9,5.3c4.9,5.7,5.1,14.1,3.5,21.5
				c-0.9,4.3-2.8,8.9-6.8,10.5c-4.3-4-8.6-8.1-12-12.9s-6-10.4-6.2-16.3c-6.9,6.1-19,2.3-26,8.3c-3,2.6-4.5,6.7-3.9,10.6
				c0.3,1.7,0.9,3.3,1,4.9c0.2,4.1-2.6,7.6-4.1,11.5C840.1,479.8,840.5,484.9,842.7,489.1z"/>
			<g>
				<path class="st39" d="M890.7,468.2c0,0,0.9-7.6,7.8-3.5c2.7,1.6,1.5,10.2-6.8,10C891.8,474.7,889.1,473.5,890.7,468.2z"/>
			</g>
		</g>
	</g>
	<path class="st51" d="M915.7,752c0,0-32.4,4.9-70.2,0"/>
</g>
<g>
	<ellipse class="st0" cx="630.7" cy="928.3" rx="105.7" ry="5.4"/>
	<g>
		<g>
			<g>
				<rect x="620.4" y="674" class="st52" width="20.8" height="223.7"/>
				<g>
					<path class="st52" d="M730.3,524.9h-199c-3.9,0-7.1,3.2-7.1,7.1v134.9c0,3.9,3.2,7.1,7.1,7.1h199c3.9,0,7.1-3.2,7.1-7.1V532
						C737.4,528.1,734.2,524.9,730.3,524.9z"/>
					<path class="st53" d="M719.2,536.6H542.3c-3.9,0-7.1,3.2-7.1,7.1v111.4c0,3.9,3.2,7.1,7.1,7.1h176.9c3.9,0,7.1-3.2,7.1-7.1
						V543.7C726.4,539.8,723.2,536.6,719.2,536.6z"/>
					<g>
						<path class="st54" d="M713.9,550.8h-37.4c-0.9,0-1.7,0.7-1.7,1.7v2.7c0,0.9,0.7,1.7,1.7,1.7h37.4c0.9,0,1.7-0.7,1.7-1.7v-2.7
							C715.6,551.5,714.8,550.8,713.9,550.8z"/>
						<path class="st54" d="M713.9,562.8h-37.4c-0.9,0-1.7,0.7-1.7,1.7v2.7c0,0.9,0.7,1.7,1.7,1.7h37.4c0.9,0,1.7-0.7,1.7-1.7v-2.7
							C715.6,563.6,714.8,562.8,713.9,562.8z"/>
					</g>
					<path class="st26" d="M665.4,592.3c-3.3,0-6.1,2-7.3,4.9h-17c-0.3,0-0.6,0.2-0.8,0.5l-1.1,2.8c-0.1,0.3-0.4,0.5-0.8,0.5
						c-0.3,0-0.6-0.2-0.8-0.6l-6-19.9c-0.1-0.4-0.5-0.7-1-0.7c-0.5,0-0.9,0.3-1,0.7l-11.3,36.9c-0.1,0.4-0.5,0.7-1,0.7
						c-0.5,0-0.9-0.3-1-0.8l-13.8-48.8c-0.2-0.6-0.7-1-1.3-1c-0.6,0-1.2,0.4-1.3,1l-10.8,34.1c-0.2,0.6-0.7,1-1.3,1.1
						c-0.6,0.1-1.2-0.2-1.6-0.7l-2.3-3.5c-1.2-1.9-3.3-3-5.5-3h-43.3v6h40.1c2.2,0,4.3,1.1,5.5,3l7.5,11.4c0.3,0.5,1,0.8,1.6,0.7
						c0.6-0.1,1.1-0.5,1.3-1.1l9.1-28.6c0.1-0.4,0.5-0.6,0.9-0.6c0.4,0,0.7,0.3,0.8,0.6l14.4,50.9c0.1,0.4,0.5,0.8,1,0.8
						c0.5,0,0.9-0.3,1-0.7l12.5-40.8l6.2,20.5c0.1,0.4,0.5,0.7,1,0.7c0.4,0,0.9-0.3,1-0.7L644,605c0.4-1.1,1.5-1.9,2.8-1.9h11.4
						c1.2,2.9,4,4.9,7.3,4.9c4.3,0,7.9-3.5,7.9-7.9C673.3,595.8,669.8,592.3,665.4,592.3z"/>
				</g>
			</g>
			<g>
				<g>
					<g>
						<path class="st52" d="M704.6,920.7c-1.7,0-3.2-1.4-3.2-3.2v-14.3H560.1v14.3c0,1.7-1.4,3.2-3.2,3.2c-1.7,0-3.2-1.4-3.2-3.2
							v-14.3c0-3.5,2.8-6.3,6.3-6.3h141.3c3.5,0,6.3,2.8,6.3,6.3v14.3C707.7,919.3,706.3,920.7,704.6,920.7z"/>
					</g>
				</g>
				<g>
					<g>
						<g>
							<circle class="st55" cx="557" cy="917.6" r="10.7"/>
						</g>
						<g>
							<circle class="st52" cx="557" cy="917.6" r="5.7"/>
						</g>
					</g>
					<g>
						<g>
							<circle class="st55" cx="704.6" cy="917.6" r="10.7"/>
						</g>
						<g>
							<circle class="st52" cx="704.6" cy="917.6" r="5.7"/>
						</g>
					</g>
				</g>
			</g>
		</g>
		<g>
			<path class="st9" d="M630.8,466.4c-5,0.3-8.9,4.6-8.6,9.6s4.6,8.9,9.6,8.6c4.8-0.3,8.6-4.3,8.6-9.1
				C640.2,470.4,636,466.3,630.8,466.4z"/>
			<path class="st9" d="M605.1,500.1c-0.7,0-1.3-0.3-1.8-0.7c-13.2-12.3-13.9-32.9-1.7-46c0.5-0.6,1.1-1.1,1.7-1.7c1-1,2.6-1,3.5,0
				c0.9,0.8,1,2.2,0.2,3.1c-0.1,0.1-0.1,0.1-0.2,0.2c-11.3,10.5-12,28.3-1.4,39.6c0.5,0.5,0.9,1,1.4,1.4c0.9,0.8,1,2.2,0.2,3.1
				c-0.1,0.1-0.1,0.1-0.2,0.2C606.4,499.8,605.7,500.1,605.1,500.1z"/>
			<path class="st9" d="M656.5,500.1c-0.7,0-1.3-0.3-1.7-0.7c-0.9-0.8-1-2.2-0.2-3.1c0.1-0.1,0.2-0.2,0.2-0.2
				c11.3-10.5,12-28.3,1.4-39.6c-0.5-0.5-0.9-1-1.4-1.4c-0.9-0.8-1-2.2-0.2-3.1c0.1-0.1,0.2-0.2,0.2-0.2c1-1,2.5-1,3.5,0
				c13.2,12.3,13.9,32.9,1.7,46c-0.5,0.6-1.1,1.1-1.7,1.7C657.7,499.8,657.1,500.1,656.5,500.1z"/>
			<path class="st9" d="M615.7,490.1c-0.7,0-1.3-0.3-1.7-0.7c-7.7-7-8.2-18.9-1.2-26.6c0.4-0.4,0.8-0.8,1.2-1.2c1-1,2.5-1,3.5,0
				c0.9,0.8,1,2.2,0.2,3.1c-0.1,0.1-0.1,0.1-0.2,0.2c-5.8,5.4-6.1,14.5-0.7,20.4c0.2,0.2,0.5,0.5,0.7,0.7c0.9,0.8,1,2.2,0.2,3.1
				c-0.1,0.1-0.1,0.1-0.2,0.2C617,489.8,616.4,490.1,615.7,490.1z"/>
			<path class="st9" d="M645.8,490.1c-0.7,0-1.3-0.3-1.8-0.7c-0.9-0.8-1-2.2-0.2-3.1c0.1-0.1,0.1-0.1,0.2-0.2
				c5.8-5.4,6.2-14.5,0.8-20.3c-0.2-0.3-0.5-0.5-0.8-0.8c-0.9-0.8-1-2.2-0.2-3.1c0.1-0.1,0.1-0.1,0.2-0.2c1-1,2.6-1,3.5,0
				c7.7,7,8.2,18.9,1.2,26.6c-0.4,0.4-0.8,0.8-1.2,1.2C647.1,489.8,646.4,490.1,645.8,490.1z"/>
		</g>
	</g>
</g>
<g>
	<ellipse class="st0" cx="511.7" cy="973.6" rx="135.8" ry="5.4"/>
	<g>
		<g>
			<g>
				<g>
					<path class="st56" d="M531.1,834.2v118.2c0,11-12.5,20-28,20h-76c-15.4,0-28-8.9-28-20V834.2c0-14.2,12.1-26.4,29.3-31.6v-17
						h73.4v17C519,807.8,531.1,820,531.1,834.2z"/>
					<rect x="399.2" y="847.3" class="st10" width="131.9" height="84.8"/>
					<path class="st57" d="M501.8,802.6v-17h-9.5v17c17.2,5.2,29.3,17.4,29.3,31.6v118.2c0,11-12.5,20-28,20h9.5
						c15.4,0,28-8.9,28-20V834.2C531.1,820,519,807.8,501.8,802.6z"/>
					<path class="st58" d="M508.9,868.8L508.9,868.8c-2.8,0-5.1-2.3-5.1-5.1v-32.8c0-2.8,2.3-5.1,5.1-5.1l0,0c2.8,0,5.1,2.3,5.1,5.1
						v32.8C514,866.5,511.7,868.8,508.9,868.8z"/>
					<path class="st59" d="M418.9,952.4V834.2c0-14.2,12.1-26.4,29.3-31.6v-17h-19.8v17c-17.2,5.2-29.3,17.4-29.3,31.6v118.2
						c0,11,12.5,20,28,20h19.8C431.5,972.4,418.9,963.4,418.9,952.4z"/>
					<path class="st10" d="M525.1,770.6v26.8c0,5.4-4.4,9.7-9.8,9.7H415c-5.4,0-9.8-4.4-9.8-9.7v-26.8c0-5.4,4.4-9.7,9.8-9.7h100.3
						C520.7,760.9,525.1,765.2,525.1,770.6z"/>
					<path class="st47" d="M437.8,760.9v46.3h-24.7c-4.4,0-7.9-4.4-7.9-9.7v-26.8c0-5.4,3.5-9.7,7.9-9.7H437.8z"/>
					<rect x="496.6" y="760.9" class="st60" width="11" height="46.3"/>
					<rect x="485.6" y="760.9" class="st60" width="5.5" height="46.3"/>
					<path class="st14" d="M490.1,876.8h-64.3c-1.2,0-2.2-1-2.2-2.2l0,0c0-1.2,1-2.2,2.2-2.2h64.3c1.2,0,2.2,1,2.2,2.2l0,0
						C492.3,875.8,491.3,876.8,490.1,876.8z"/>
					<path class="st14" d="M490.1,888.3h-64.3c-1.2,0-2.2-1-2.2-2.2l0,0c0-1.2,1-2.2,2.2-2.2h64.3c1.2,0,2.2,1,2.2,2.2l0,0
						C492.3,887.3,491.3,888.3,490.1,888.3z"/>
					<path class="st14" d="M468.1,899.8h-42.3c-1.2,0-2.2-1-2.2-2.2l0,0c0-1.2,1-2.2,2.2-2.2h42.3c1.2,0,2.2,1,2.2,2.2l0,0
						C470.3,898.9,469.3,899.8,468.1,899.8z"/>
				</g>
				<g>
					<path class="st61" d="M623.7,849.4v105.1c0,9.8-8,17.8-17.8,17.8h-48.4c-9.8,0-17.8-8-17.8-17.8V849.4H623.7z"/>
					<path class="st54" d="M623.7,849.1v105.5c0,9.8-8,17.8-17.8,17.8h-48.4c-9.8,0-17.8-8-17.8-17.8V849.1
						c0-12.7,7.7-23.5,18.6-28.2v-15.2H605v15.2C616,825.6,623.7,836.4,623.7,849.1z"/>
					<rect x="539.7" y="870.5" class="st62" width="84" height="52.9"/>
					<path class="st63" d="M605,820.9v-15.2h-6v15.2c11,4.6,18.6,15.5,18.6,28.2v105.5c0,9.8-8,17.8-17.8,17.8h6
						c9.8,0,17.8-8,17.8-17.8V849.1C623.7,836.4,616,825.6,605,820.9z"/>
					<path class="st58" d="M607.3,866.4L607.3,866.4c-2.2,0-4.1-1.8-4.1-4.1v-23.1c0-2.2,1.8-4.1,4.1-4.1l0,0c2.2,0,4.1,1.8,4.1,4.1
						v23.1C611.3,864.6,609.5,866.4,607.3,866.4z"/>
					<path class="st64" d="M552.3,954.6V849.1c0-12.7,7.7-23.5,18.6-28.2v-15.2h-12.6v15.2c-11,4.6-18.6,15.5-18.6,28.2v105.5
						c0,9.8,8,17.8,17.8,17.8h12.6C560.3,972.4,552.3,964.4,552.3,954.6z"/>
					<path class="st55" d="M614.6,795.3v14.8c0,3-2.4,5.4-5.4,5.4h-55.1c-3,0-5.4-2.4-5.4-5.4v-14.8c0-3,2.4-5.4,5.4-5.4h55.1
						C612.2,789.9,614.6,792.4,614.6,795.3z"/>
					<path class="st65" d="M570.9,789.9v25.5h-16.8c-3,0-5.4-2.4-5.4-5.4v-14.8c0-3,2.4-5.4,5.4-5.4H570.9z"/>
					<rect x="599" y="789.9" class="st66" width="6" height="25.5"/>
					<rect x="593" y="789.9" class="st66" width="3" height="25.5"/>
				</g>
				<path class="st0" d="M435.7,982c0,2.5-10.8,2.5-24.1,2.5c-13.3,0-24.1,0-24.1-2.5c0-2.5,10.8-4.5,24.1-4.5
					C424.9,977.5,435.7,979.5,435.7,982z"/>
				<g>
					<path class="st67" d="M384.1,971.1c0,3.4,1.4,6.4,3.6,8.7c2.2,2.2,5.3,3.6,8.7,3.6h30.4c6.7,0,12.3-5.5,12.3-12.3
						c0-3.4-1.4-6.4-3.6-8.7c-2.2-2.2-5.3-3.6-8.7-3.6h-30.4C389.6,958.8,384.1,964.4,384.1,971.1z"/>
					<path class="st10" d="M439.1,971.1c0,2.2-0.6,4.2-1.6,6c-2.1,3.7-6.1,6.3-10.7,6.3h-15.2v-24.5h15.2c3.4,0,6.4,1.4,8.7,3.6
						C437.7,964.7,439.1,967.7,439.1,971.1z"/>
					<path class="st68" d="M387.7,976.3c2.2,2.2,5.3,3.6,8.7,3.6h30.4c6.2,0,11.3-4.6,12.1-10.5c0.1,0.6,0.1,1.2,0.1,1.7
						c0,6.7-5.5,12.3-12.3,12.3h-30.4c-3.4,0-6.4-1.4-8.7-3.6c-2.2-2.2-3.6-5.3-3.6-8.7c0-0.6,0-1.2,0.1-1.7
						C384.6,972,385.9,974.4,387.7,976.3z"/>
					<path class="st63" d="M395.9,965.7h31.4c1,0,1.8-0.8,1.8-1.8l0,0c0-1-0.8-1.8-1.8-1.8h-31.4c-1,0-1.8,0.8-1.8,1.8l0,0
						C394.1,964.9,394.9,965.7,395.9,965.7z"/>
				</g>
				<ellipse class="st0" cx="455.9" cy="984.7" rx="8.9" ry="2.9"/>
				<path class="st69" d="M439.1,971.1c0,2.2-0.6,4.2-1.6,6l-15.8-14.3c-1.3-1.1-2.2-2.5-2.9-4h8.1c3.4,0,6.4,1.4,8.7,3.6
					C437.7,964.7,439.1,967.7,439.1,971.1z"/>
				<g>
					<path class="st67" d="M463.8,982.3c-2.3,2.5-5.3,3.9-8.5,4c-3.1,0.2-6.3-0.9-8.8-3.1l-22.6-20.4c-5-4.5-5.4-12.3-0.9-17.3
						c2.3-2.5,5.3-3.9,8.5-4c3.1-0.2,6.3,0.9,8.8,3.1l22.6,20.4C467.9,969.5,468.3,977.3,463.8,982.3z"/>
					<path class="st54" d="M451.6,954.8L435.1,973l-11.3-10.2c-5-4.5-5.4-12.3-0.9-17.3c2.3-2.5,5.3-3.9,8.5-4
						c3.1-0.2,6.3,0.9,8.8,3.1L451.6,954.8z"/>
					<path class="st68" d="M457.6,983.8c-3.1,0.2-6.3-0.9-8.8-3.1l-22.6-20.4c-4.6-4.1-5.3-11-2-15.9c-0.4,0.4-0.9,0.8-1.3,1.2
						c-4.5,5-4.1,12.8,0.9,17.3l22.6,20.4c2.5,2.3,5.7,3.3,8.8,3.1c3.1-0.2,6.2-1.5,8.5-4c0.4-0.4,0.8-0.9,1.1-1.4
						C462.8,982.7,460.2,983.6,457.6,983.8z"/>
					<path class="st63" d="M458.6,970.4l-23.3-21c-0.7-0.7-0.8-1.8-0.1-2.5l0,0c0.7-0.7,1.8-0.8,2.5-0.1l23.3,21
						c0.7,0.7,0.8,1.8,0.1,2.5l0,0C460.5,971,459.3,971.1,458.6,970.4z"/>
				</g>
			</g>
			<path class="st70" d="M599.8,883.3h-40.1c-0.7,0-1.4-1-1.4-2.2l0,0c0-1.2,0.6-2.2,1.4-2.2h40.1c0.7,0,1.4,1,1.4,2.2l0,0
				C601.2,882.3,600.6,883.3,599.8,883.3z"/>
			<path class="st70" d="M599.8,894.8h-40.1c-0.7,0-1.4-1-1.4-2.2l0,0c0-1.2,0.6-2.2,1.4-2.2h40.1c0.7,0,1.4,1,1.4,2.2l0,0
				C601.2,893.9,600.6,894.8,599.8,894.8z"/>
			<path class="st70" d="M585.7,906.3H560c-0.9,0-1.7-0.8-1.7-1.7v-0.9c0-0.9,0.8-1.7,1.7-1.7h25.7c0.9,0,1.7,0.8,1.7,1.7v0.9
				C587.4,905.6,586.6,906.3,585.7,906.3z"/>
		</g>
		<g>
			<path class="st9" d="M465.1,711c-4.3,0.2-7.6,4-7.4,8.3c0.2,4.3,4,7.6,8.3,7.4c4.1-0.2,7.4-3.7,7.4-7.8
				C473.3,714.4,469.6,710.9,465.1,711z"/>
			<path class="st9" d="M443.1,739.9c-0.6,0-1.1-0.2-1.5-0.6c-11.3-10.5-12-28.2-1.4-39.5c0.5-0.5,0.9-1,1.4-1.4
				c0.8-0.8,2.2-0.8,3,0c0.8,0.7,0.9,1.9,0.2,2.7c-0.1,0.1-0.1,0.1-0.2,0.2c-9.7,9.1-10.3,24.3-1.2,34c0.4,0.4,0.8,0.8,1.2,1.2
				c0.8,0.7,0.9,1.9,0.2,2.7c-0.1,0.1-0.1,0.1-0.2,0.2C444.2,739.7,443.6,739.9,443.1,739.9z"/>
			<path class="st9" d="M487.2,739.9c-0.6,0-1.1-0.2-1.5-0.6c-0.8-0.7-0.9-1.9-0.2-2.7c0.1-0.1,0.1-0.1,0.2-0.2
				c9.7-9.1,10.3-24.3,1.2-34c-0.4-0.4-0.8-0.8-1.2-1.2c-0.8-0.7-0.9-1.9-0.2-2.7c0.1-0.1,0.1-0.1,0.2-0.2c0.8-0.8,2.2-0.8,3,0
				c11.3,10.5,12,28.2,1.4,39.5c-0.5,0.5-0.9,1-1.4,1.4C488.3,739.7,487.7,739.9,487.2,739.9z"/>
			<path class="st9" d="M452.2,731.3c-0.6,0-1.1-0.2-1.5-0.6c-6.6-6-7-16.2-1-22.8c0.3-0.4,0.7-0.7,1-1c0.8-0.8,2.2-0.8,3,0
				c0.8,0.7,0.9,1.9,0.2,2.7c-0.1,0.1-0.1,0.1-0.2,0.2c-5,4.7-5.3,12.5-0.6,17.5c0.2,0.2,0.4,0.4,0.6,0.6c0.8,0.7,0.9,1.9,0.2,2.7
				c-0.1,0.1-0.1,0.1-0.2,0.2C453.3,731.1,452.8,731.3,452.2,731.3z"/>
			<path class="st9" d="M478,731.3c-0.6,0-1.1-0.2-1.5-0.6c-0.8-0.7-0.9-1.9-0.2-2.7c0.1-0.1,0.1-0.1,0.2-0.2
				c5-4.6,5.3-12.4,0.7-17.4c-0.2-0.2-0.4-0.5-0.7-0.7c-0.8-0.7-0.9-1.9-0.2-2.7c0.1-0.1,0.1-0.1,0.2-0.2c0.8-0.8,2.2-0.8,3,0
				c6.6,6,7,16.2,1,22.8c-0.3,0.4-0.7,0.7-1,1C479.1,731.1,478.6,731.3,478,731.3z"/>
		</g>
		<g>
			<path class="st9" d="M581.4,755.1c-3.2,0.2-5.6,2.9-5.4,6.1c0.2,3.2,2.9,5.6,6.1,5.4c3.1-0.2,5.4-2.7,5.4-5.8
				C587.4,757.6,584.6,755.1,581.4,755.1z"/>
			<path class="st9" d="M565.1,776.4c-0.4,0-0.8-0.2-1.1-0.4c-8.3-7.7-8.8-20.8-1.1-29.1c0.3-0.4,0.7-0.7,1.1-1.1
				c0.6-0.6,1.6-0.6,2.2,0c0.6,0.5,0.6,1.4,0.1,2c0,0-0.1,0.1-0.1,0.1c-7.2,6.7-7.6,17.9-0.9,25c0.3,0.3,0.6,0.6,0.9,0.9
				c0.6,0.5,0.6,1.4,0.1,2c0,0-0.1,0.1-0.1,0.1C565.9,776.3,565.5,776.4,565.1,776.4z"/>
			<path class="st9" d="M597.6,776.4c-0.4,0-0.8-0.2-1.1-0.4c-0.6-0.5-0.6-1.4-0.1-2c0-0.1,0.1-0.1,0.1-0.1c7.2-6.7,7.6-17.9,0.9-25
				c-0.3-0.3-0.6-0.6-0.9-0.9c-0.6-0.5-0.6-1.4-0.1-2c0-0.1,0.1-0.1,0.1-0.1c0.6-0.6,1.6-0.6,2.2,0c8.3,7.7,8.8,20.8,1.1,29.1
				c-0.3,0.4-0.7,0.7-1.1,1.1C598.4,776.3,598,776.4,597.6,776.4z"/>
			<path class="st9" d="M571.9,770.1c-0.4,0-0.8-0.2-1.1-0.4c-4.8-4.4-5.2-11.9-0.7-16.8c0.2-0.3,0.5-0.5,0.7-0.7
				c0.6-0.6,1.6-0.6,2.2,0c0.6,0.5,0.6,1.4,0.1,2c0,0-0.1,0.1-0.1,0.1c-3.7,3.4-3.9,9.2-0.5,12.9c0.1,0.2,0.3,0.3,0.5,0.5
				c0.6,0.5,0.6,1.4,0.1,2c0,0-0.1,0.1-0.1,0.1C572.7,769.9,572.3,770.1,571.9,770.1z"/>
			<path class="st9" d="M590.9,770.1c-0.4,0-0.8-0.2-1.1-0.4c-0.6-0.5-0.6-1.4-0.1-2c0,0,0.1-0.1,0.1-0.1c3.7-3.4,3.9-9.2,0.5-12.8
				c-0.2-0.2-0.3-0.3-0.5-0.5c-0.6-0.5-0.6-1.4-0.1-2c0,0,0.1-0.1,0.1-0.1c0.6-0.6,1.6-0.6,2.2,0c4.8,4.4,5.2,11.9,0.7,16.8
				c-0.2,0.3-0.5,0.5-0.7,0.7C591.7,769.9,591.3,770.1,590.9,770.1z"/>
		</g>
	</g>
</g>
</svg>
